<?xml version="1.0" encoding="UTF-8"?>
<!DOCTYPE svg PUBLIC "-//W3C//DTD SVG 1.1//EN" "http://www.w3.org/Graphics/SVG/1.1/DTD/svg11.dtd">
<!-- Creator: CorelDRAW 2018 (64-Bit) -->
<svg xmlns="http://www.w3.org/2000/svg" xml:space="preserve" width="160mm" height="172mm" version="1.1" style="shape-rendering:geometricPrecision; text-rendering:geometricPrecision; image-rendering:optimizeQuality; fill-rule:evenodd; clip-rule:evenodd"
viewBox="0 0 16000 17200"
 xmlns:xlink="http://www.w3.org/1999/xlink">
 <defs>
  <style type="text/css">
   <![CDATA[
    .fil0 {fill:#FEFEFE}
    .fil1 {fill:#E31E24}
   ]]>
  </style>
 </defs>
 <g id="Katman_x0020_1">
  <metadata id="CorelCorpID_0Corel-Layer"/>
  <g id="_2126881227376">
   <path class="fil0" d="M6261.93 4606.98l88.11 -5.91 0.11 602.16c-17.47,30.12 8.4,4.41 -31.75,20.27 -13.08,5.18 -10.01,-1.09 -30.68,8.81l61.91 -5.15 -1.94 443.91c-14.46,0.42 -25.48,-0.07 -39.96,2.08 -39.25,5.73 30.53,-6.69 -18.61,4.02l-17.76 5.88 78.95 -0.24 -3.16 484.37c-16.08,5.29 -24.11,4.87 -39.01,8.77l-29.71 10.47c-1.16,-1.95 -4.47,1.94 -6.4,3.39l77.86 -9.62c-2.9,176.76 -12.96,396.46 -0.34,569.3 25.48,349.01 554.27,366.32 594.89,9.99 20.24,-177.61 -10.11,-391 3,-573.77l36.68 -5.95 -38.6 -21.85 -1.45 -483.47 103.62 3.79c-21.77,-13.76 -66.82,-12.18 -101.39,-13.17l0.65 -442.77 63.74 3.58c-20.66,-13.82 -32.97,-9.96 -65.71,-13.02l2.77 -612.37c-3.83,-133.43 23.79,-318.37 -23.81,-430.37 -104.08,-244.84 -445.34,-246.54 -550.95,-5.21 -48.01,109.76 -21.2,297.05 -26.23,426.61 -34.27,0.38 -55.42,0.07 -84.83,15.47z"/>
   <path class="fil0" d="M6288.6 14895.89c23.61,13.45 32.57,10.37 69.07,14.2l-0.91 481.55 -60.42 -1.66 59.05 18.1 -4.48 436.83 -78.75 -4.81c22.71,13.13 50.21,11.71 84.36,14.19l-0.12 612.62 -55.83 0.65 52.97 12.57c1.49,109.96 -10.72,355.37 21.13,436.62 93.79,239.25 438.08,257.19 548.33,5.32 37.9,-86.62 13.1,-331.48 20.68,-449.59l-1.68 -615.56 63.86 -14.1 -61 4.55 -0.91 -440.69 57.11 -18.59 -59.81 0.29c-0.85,-71.56 -12.65,-440.36 5.63,-477.69 -18.72,-187.92 8.52,-403.43 -4.26,-594.31 -10.57,-157.81 -126.61,-287.01 -291.42,-289.06 -169.23,-2.12 -290.83,134.41 -297.26,286.63 -8.12,192.07 5.51,391.6 -2.34,584.56l-63 -2.62z"/>
   <path class="fil0" d="M699.86 10187.13l-13.6 64.26c-124.33,3.54 -328.07,-19.94 -432.95,19.07 -287.82,107.07 -236.22,464.07 -6.57,549.03 86.15,31.88 324.34,20.4 435.42,20.89l9.22 63.27c0.92,3.24 2.29,6.3 3.11,8.94 0.84,2.64 2.05,6.02 3.35,8.92l-4.48 -87.69 621 0.79 11.8 65.2 1.52 -62.61c77,1.39 151.72,1.3 225.7,0.73l167.4 -0.86c51.65,2.69 27.29,-7.39 54.03,17.55 14.08,-27.74 -4.02,-13.95 46.79,-18.62l443 0.6c2.46,36.34 1.09,71.53 13.84,96.42l-3.89 -93.18c179.72,-9.9 378.79,12.67 548.65,-1.84 140.84,-12.05 262.68,-134.7 258.89,-295.98 -3.57,-151.64 -107.32,-275.35 -258.58,-288.22 -162.21,-13.8 -388.76,-1.92 -557.59,-2.02 -110.51,19.58 -360.87,3.93 -487.4,3.33l5.89 -115.3c-16.6,31.49 -17.61,70.93 -17.86,115.44l-441.48 -2.54 10.19 -142.92c-19.83,28.59 -15.48,102.3 -17.83,145.95l-619.17 0.16 1.6 -68.77z"/>
   <path class="fil0" d="M6296.34 15389.98l60.42 1.66 0.91 -481.55c-36.5,-3.83 -45.46,-0.75 -69.07,-14.2 -141.22,18.59 -693.68,-107.13 -840.19,-148.94 -251.84,-71.89 -502.26,-167.69 -724.84,-275.79 -484.14,-235.15 -794.29,-470.43 -1170.93,-821.38 -45.63,-42.5 -294.21,-312.02 -351.53,-389.8 -36.01,-48.85 -73.12,-91.25 -109.67,-140.34 -280.89,-377.31 -529.75,-873.08 -663.3,-1338.4 -44.99,-156.75 -173.85,-689.41 -149.7,-848.22 -12.75,-24.89 -11.38,-60.08 -13.84,-96.42l-443 -0.6c-50.81,4.67 -32.71,-9.12 -46.79,18.62 -1.44,574.58 224.71,1289.25 461.1,1794.02 124.2,265.24 268.98,495.88 420.72,710.22 154.13,217.73 334.36,430.18 526.02,614.63 99.96,96.19 185.42,178.86 294.03,271.36 295.74,251.92 666.75,490.18 1029.26,667.3 250.89,122.59 532.47,232.96 819.35,311.32 262.63,71.74 681.15,164.49 971.05,166.51z"/>
   <path class="fil0" d="M1784.41 10139.81l-5.89 115.3c126.53,0.6 376.89,16.25 487.4,-3.33 44.46,-552.12 165.8,-1066.58 377.1,-1503.17 195.65,-404.29 316.02,-607.69 582.27,-937.51 21.59,-26.74 36.62,-37.26 56.41,-63.97 33.99,-45.92 83.41,-90.75 109.17,-136.87 8.71,-75.51 -84.52,-111.12 -152.6,-189.39 -27.5,-31.62 -10.58,-24.06 -45.96,-48 -59.34,-40.12 -68.07,-102.27 -128.9,-123.2l-127.24 133.56c-132.64,162.12 -215.37,249.14 -337.54,441.06 -36.19,56.86 -68.74,101.18 -104.27,155.28 -88.22,134.28 -208.99,364.39 -276.98,511.32 -113.83,245.91 -202.44,479.84 -280.69,757.65 -59.34,210.67 -158.66,663.02 -152.28,891.27z"/>
   <path class="fil0" d="M11021.83 10901.18c20.94,146.67 -84.99,613.79 -124.69,764.52 -62.26,236.34 -138.49,449.56 -233.45,665.14 -92.03,208.93 -204.51,404.13 -317.97,580.77 -80.28,125 -187.99,270.93 -282.98,383.81 -30.06,35.73 -81.34,86.19 -105.3,126.86 31.55,15 62.75,56.56 89.31,82.62l172.44 170.36c27.54,28.28 55.23,72.59 108.36,66.32 58.13,-43.39 185.57,-209.85 236.68,-278.43 542.32,-727.37 909.12,-1622.8 956.3,-2568.98l0.43 -58.61 -489.21 -1.5c-1.51,31.93 2.88,46.52 -9.92,67.12z"/>
   <path class="fil0" d="M3433.64 6888.07c16.9,44.25 48.38,45.24 81.14,88.62 57.64,76.33 102.89,93.98 147.68,148.98 21.75,26.69 88.12,98.24 115.17,108.12 27.02,-12.59 92.61,-70.75 119.69,-94.52 402.43,-353.54 1122.95,-684.22 1621.95,-814.77 135.13,-35.35 622.97,-152.13 752.76,-134.69 1.93,-1.45 5.24,-5.34 6.4,-3.39l29.71 -10.47c14.9,-3.9 22.93,-3.48 39.01,-8.77l3.16 -484.37 -78.95 0.24c-426.08,9.59 -1223.18,240.67 -1605.32,417.19 -238.03,109.97 -446.25,216.52 -658.8,351.64 -105.35,66.95 -530.42,358.68 -573.6,436.19z"/>
   <path class="fil0" d="M11024.36 10206.03l15.97 49.34 476.25 0.09 -0.61 -54.35c8.01,-485.34 -212.42,-1221.75 -418.85,-1676.45 -28.28,-62.31 -77.84,-156.93 -94.82,-212.23l-523.96 64.87c1.27,29.21 161.33,332.83 189.47,399.59 126.79,300.95 219.06,573.97 286.94,899.73 22.19,106.56 83.06,433.9 69.61,529.41z"/>
   <path class="fil0" d="M4713.6 10839.07c59.53,-56.37 122.87,46.34 158.42,73.42 32.23,24.59 39.84,18.25 61.01,67.44 16.16,37.65 32.38,55.9 43.29,94.96 -178.15,-36.06 -76.72,-7.62 -170.17,-105.93 -83.95,-88.33 -131.82,-92.7 -92.55,-129.89zm2495.28 536.49c-54.25,-49.35 -85.72,-106.63 -149.7,-149 -12.08,28.37 -48.14,37.62 -76.65,54 -164.15,94.4 -494.91,192.89 -683.05,133.89 3.61,-110.82 232.45,-136.12 319.51,-144.88 121.9,-12.28 293.62,-24.82 377.9,-86.99 -24.08,-53.83 -67.23,-85.28 -111.67,-124.33 -21.13,-18.58 -31.15,-35.92 -56.17,-55.49 -45.84,-35.84 -25.74,-6.12 -61.11,-56.81 -127.95,22.57 -183.21,88.14 -289.83,118.02 -85.98,24.08 -219.79,92.92 -294.94,94.45 9.14,-32.76 161.75,-185 195.38,-212.22 54.22,-43.88 178.58,-160.99 234.93,-170.42 -1.85,-1.66 -5.43,-5.73 -6.48,-3.81l-29.42 -17.87c-22.86,-19.95 10.75,-11.6 -95.53,-99.11l-41.08 -41.04c-30.07,-38.86 -19.47,-25.93 -57.65,-55.27l-109.26 -112.55c-20.92,-20.14 -34.99,-34.68 -55.88,-55.13l-162.04 -171.59c-74.04,-74.72 -105.35,-77.94 -197.12,-191.66 -12.11,-15.01 -13.97,-15.89 -28.64,-27.92 -71.93,-58.94 -50.41,-52.87 -118.11,-107.5 -1.32,-1.09 -3.86,-3.24 -5.72,-4.91 -86.63,68.07 -164.72,6 -224.12,-20.78 -2.66,-53.88 18.17,-121.81 58.06,-160.67 -25.43,-22.23 -39.89,-47.55 -67.43,-65.31 -18.43,40.41 -62.73,90.4 -87.81,127.11 -23.33,34.18 -64.59,102.18 -87.37,125.3 -54.93,55.78 -77.26,5.4 -323.14,307.38l-138.92 176.29c-16.4,22.71 -24.24,37.8 -43.7,58.16 -71.24,74.52 -65.99,69.51 -123.8,61.04 35.6,-126.76 86.09,-243.36 133.24,-366.94 32.94,-86.33 119.69,-271.35 132.96,-358.95 118.93,-10.34 171.03,-42.35 246.44,-95.27 48.73,-34.21 139.91,-105.42 217.55,-110.18 -16.11,-20.65 2.8,1.55 -16.32,-15.35 -27.91,-24.69 -39.42,-39.46 -66.17,-50.46 -60.8,37.4 -106.86,71.4 -173.9,108.72 -54.74,30.49 -107.65,76.2 -166.29,97.72 17.57,-81.88 109.01,-366.56 146.66,-411.78 -20.71,-44.66 -26.61,-40.32 -61.74,-71.45 -13.73,-12.14 -20.72,-19.36 -31.71,-32.9 -23.44,-28.89 -7.52,-25.13 -40.39,-37.4 -31.1,118.55 -63.83,239.57 -92.5,368.52 -73.76,331.57 -119.97,391.7 -222.65,694.52 -36.16,106.67 -76.98,239.94 -124.64,330.06 16.02,-278.96 57.31,-562.44 76.2,-843.05 20.81,-309.19 69.2,-566.76 89.93,-825.24 -25.99,-36.48 -53.7,-54.91 -93.12,-79.38 -29.46,324.26 -67.43,647.21 -95.4,975.79 -20.34,238.63 -40.38,528.2 -41.23,769.08 -0.37,110.71 7.36,143.66 54.91,220.84 -64.89,-1.61 -520.21,137.2 -717.54,166.03 -133.74,19.56 -280.31,27.39 -415.73,31.92 -105.01,3.53 -98.73,-0.05 -184.96,35.28 -57.13,23.41 -126.2,33.57 -139.54,83.92 127.85,37.37 906.09,-33.38 1135.07,-79.3l351.03 -70.76c22.6,27.37 51.6,54.4 72.94,82.8 -88.62,-13.7 -163.75,40.54 -219.04,80.71 -68.1,49.43 -107.4,82.79 -125.87,200.27 -14.15,90 -25.04,191.69 -31.45,282.8 -10.31,145.93 5.47,160.78 -91.98,231.55 -223.17,162.06 -328.76,250.1 -575.68,388.19 -44.73,25.01 -60.05,29.7 -97.5,60.78 -51.44,42.71 -56.06,21.05 -66.99,53.83 -10.75,32.34 2.15,25.82 3.92,28.72 141.11,69.54 759.76,-362.28 837.26,-420.46 113.47,-85.17 61.53,-49.68 125.28,-106.96 17.45,-15.68 30.12,-24.68 38.18,-44.87 30.29,-75.75 -64.95,-431.59 156.59,-640.73 36.91,-34.88 49.3,-44.31 60.77,-101.2 71.74,182.98 36.18,105.41 -49.31,298.91 -50.8,115.02 -60.7,227.05 -68.14,359.85l70.5 12.03c-1.05,77.52 -1.35,264.57 68.98,329.42 39.33,-60.99 32.97,-143.59 94.81,-183.43 94.89,-61.16 95.33,-15.47 183.83,43.83 -12.8,30.56 -86.32,72.28 -90.24,250.72 -1.66,75.63 34.7,231.6 89.65,260.09l12.96 -155.19c78.87,178.56 373.91,285.73 459.75,218.87 49.5,-38.56 115.35,-149.76 135.52,-226.42 25.48,-96.85 21.25,-244.12 -14.77,-327.82 -40.9,28.6 -20.46,31.43 -36,77.33 -50.85,-55.87 -69.74,-77.96 -141.13,-125.25 -60.43,-40.02 -107.21,-52.95 -189.17,-69.34 90.17,-20.5 198.74,36.5 275.9,-2.66 30.14,-99.95 -83.28,-356.04 -113.11,-446.44 54.9,-11.29 84.99,10.82 126.71,84.58 27.76,49.1 53.23,97.1 73.5,158.33 75.32,227.53 192.59,533.07 72.84,762.41 -84.75,162.32 -185.44,238.05 -286.32,418.52 -68.16,121.93 -478.72,653.6 -594.64,804.57 -104.14,135.66 -5.12,226.49 61.8,116.81 60.01,-98.35 630.06,-835.19 664.9,-863.98 63.26,-52.3 86.79,-58.11 39.38,-149.1 31.1,-24.75 51.37,-29.18 81.46,-73.17 65.13,-95.24 129.17,-307.53 153.67,-332.39 -17.41,70.54 -62.88,218.43 -16.04,270.24 28.33,31.33 89.21,38.65 125.1,9.78 105.54,-84.89 131.53,-606.52 131.01,-742.6 113,2.6 215.19,145.19 616.48,54.58 95.79,-21.63 187.59,-52.3 279.41,-82.62 45.43,-15 96.31,-28.27 139.78,-45.67 54.88,-21.97 44.34,-68.26 134.98,-27.36 -17.63,4.79 -18.69,1.56 -34.55,3.58l-50.31 15.2c99.47,18.18 89.77,-13.28 168.9,-18.89 105.92,265.29 63.83,1085.76 86.77,1137.98 16.21,19.01 31.98,22.4 54.46,46.32 17.65,18.79 32.73,39.11 49.53,61.24 111.9,147.29 164.9,239.66 328.5,339.49 93.02,56.76 209.2,86.47 328.65,116.61 111.69,28.15 289.97,101.67 354.27,79.74l11.57 -55.17c-61.95,-15.92 -143.46,-49.71 -208.39,-71.64 -158.95,-53.7 -337.02,-136.87 -471.18,-233.25 -61.73,-44.33 -164.88,-169.09 -207.74,-218.54 -43.76,-50.48 -112.9,-97.39 -114.44,-175.41 -4.08,-203.6 43.75,-1165.27 -167.49,-1249.22 -66.46,-26.43 -173.65,28.1 -229.12,50.67 -144.46,58.73 -261.63,105.04 -422.34,143.45 -106.14,25.35 -409.37,66.12 -461.57,-35.29 109.78,1.4 179.99,10.96 301.89,-2.11 200.96,-21.53 343.55,-63.96 522.96,-144.64l219.55 -117.35z"/>
   <path class="fil0" d="M6261.88 9389.21c-41.45,-111.7 112.89,-288.17 196.38,-365.36l129.95 -129.66c31.8,-36.86 53.25,-46.31 90.84,-75.71 49.62,-38.82 149.59,-102 211.15,-128.57 -79.6,239.48 -254.07,406.18 -442.99,554.2l-185.33 145.1zm474.33 -1488.57c-95.79,49.48 -319.47,527.64 -399.54,686.66 -39.45,78.33 -95.4,176.16 -203.06,155.36 -32.01,-6.17 -219.72,-128.27 -224.27,-136.57 -16.48,-30.03 -27.98,-627.49 -20.62,-690.67 9.09,-77.75 27.06,-228.62 48.75,-299.03 243.78,-47.62 719.99,160.73 864.52,336.9 48.47,59.12 104.04,174.76 130.73,268 42.45,148.3 55.42,208.56 -42.08,298.68 -98.47,91.02 -106.5,116.21 -201.6,196.95 -38.63,32.78 -67.15,67.87 -106,97.79 -119.89,92.26 -255.15,304.68 -297.08,285.03 -110.75,-95.95 130.33,-542.55 176.96,-637.28 46.98,-95.41 91.8,-184.71 141.32,-284.99 43.6,-88.28 156.24,-222.27 131.97,-276.83zm-1836.17 469.73c14.16,24.81 30.02,32.51 50.86,53.24 19.15,19.05 33.33,34.18 53.52,49.61 7.77,-87.24 217.07,-363.4 297,-458.09l53.55 -48.31c9.08,-23.61 132.55,-146.88 147.16,-158.46 88.8,-70.4 197.28,-173.83 325.94,-204.81l4.98 843.34c6.56,191.67 16.92,172.78 -64.38,248.6l-101.05 112.5c-24.93,25.89 -33.2,31.9 -55.02,55.64 -25.22,27.47 -108.65,66.97 -78.26,122.93 2.1,1.25 5.86,-0.23 6.96,2.29 12.82,29.51 112.14,-79.36 114.58,-81.5 21.37,-18.76 37.18,-28.04 56.31,-46 198.63,-186.35 205.74,-139.59 325.76,-50.85 43.43,32.11 69.72,60 77.91,136.18 23.45,218.06 -3.29,207.34 -117.87,293.05 -82.65,61.84 -111.71,49.73 -147.06,78.83 18.71,21.38 30.2,35.46 50.39,47.95 13.42,-36.75 52.81,-48.07 102.62,-74.26 37.56,-19.79 86.7,-48.62 129.91,-60.22 10.2,64.66 13.63,105.55 12.3,175.72l-148.19 39.99c15.6,51.23 171.54,184.92 224.21,235.01l132.72 126.98c21.33,19.51 17.73,26.95 36.83,46.36l880.6 883.43c236.93,-79.75 351.18,-127.96 570.19,-247.64 115.07,-62.89 145.85,-97.56 219.49,-188.79 34.81,-43.12 71.92,-48.54 121,-82.75 27.79,-19.34 99.24,-76.44 119.02,-84.14 -33.93,103.78 -189.95,193.98 -219.24,245.88 50.02,50.7 315.88,120.36 408.03,146.72l311.19 105.9c16.97,7.06 29.95,12.24 45.92,18.72l48.55 29.05c-316.3,65.54 -1035.08,141.95 -1318.56,29.13 -70.34,72.13 -94.44,36.07 -274.43,43.36l54.19 53.85c37.22,36.53 19.93,13.58 49.86,60.63 108.52,-1.89 674.78,62.8 809.58,82.11 485.38,69.58 907.33,131.29 1302,-154.97 57.27,-41.54 244.21,-209.04 286.71,-270 57.36,-82.31 60.27,-70.57 137.79,-196.2 117.71,-190.81 320.21,-604.09 247.79,-834.85 -60.6,-193.04 -324.15,-328.69 -582.91,-313.66 -137.2,7.96 -247.84,30.97 -369.55,72.89 -187.05,64.4 -172.85,72.41 -312.26,142.05 -153.59,76.71 -159.39,50.59 -208.6,237.59 -31.58,120.12 -16.6,292.03 -58.58,396.35 -80.47,-10.88 -179.5,-89.52 -275.29,-36.62 -47.17,26.05 -157.45,111.18 -231.5,130.57 -98.02,-222.79 -90.25,-267.39 -258.87,-390.22 -259.87,-189.32 -639.85,-293.33 -974.13,-320.64 -314.53,-25.68 -396.95,35.94 -598.25,48.28 52.09,-48.28 316.94,-203.03 408.72,-314.87 33.45,-40.77 84.52,-81.15 131.84,-146.41 14.67,-20.22 26.34,-32.22 41.11,-51.44 47.45,-61.72 100.86,-146.29 133.65,-237.38 113.85,-316.24 33.62,-599.53 -152.81,-858.55 -92.19,-128.1 -171.31,-171.13 -314.4,-242.87 -321.89,-161.38 -678,-268.65 -997.51,-48 -40.75,28.13 -64.17,55.5 -99.16,86.16 -160.31,140.41 -312.26,316.53 -435.99,491.24 -49.4,69.77 -123.73,212.59 -136.87,230.37z"/>
   <path class="fil0" d="M4784.4 12632.79c-31.05,-70.86 -118.58,-183.09 -151.65,-285.31 -57.55,-177.94 -7.12,-256.91 -19.87,-415.46 -90.95,-16.52 -136.3,64.59 -154.5,143.87 -30.08,130.96 35.62,436.45 192.99,540.38 52.51,34.7 66.78,19.11 133.03,16.52z"/>
   <path class="fil0" d="M10852.43 5854.28l2.67 1717.52c-115.41,21.38 -1349.81,114.89 -1449.59,108.7l7.64 -1794.39 1439.28 -31.83zm1950.51 37.35l5.47 748.26c0.32,244.14 -17.08,506.59 -9.59,744.15 -207.26,12.1 -438.33,48.98 -652.36,70.23 -223.9,22.23 -439.66,43.82 -663.83,57.62l1.64 -1612.7 1318.67 -7.56zm-1537.21 -252.77c-11.94,-83.4 -4.85,-693.08 -3.42,-824.91 2.93,-269.75 -9.09,-557.68 3.71,-824.87 311.13,26.96 627.05,73.99 944.45,106.23 233.49,23.74 730.31,69.36 939.23,108.45l-1.32 1509.25c-93.57,18.19 -1679.82,6.69 -1816.28,6.69l2.7 1930.53c50.23,8.04 756.97,-65.9 867.93,-77.42 283.43,-29.46 570.36,-48.17 853.01,-79.85l-3.99 -1650.81 103.24 3.86 3.96 1731.13 -1906.31 176.84 9.43 -2069.66 124.51 -1.02c-32.47,-33.63 -78.53,-20.23 -120.85,-44.44zm-1869.32 -202.75c-7.13,-234.98 0.31,-488.49 9.61,-723.54 3.92,-99.5 12.37,-70.76 63.38,-120.37 91.61,-89.13 156.76,-122.58 287.29,-259.66 137.42,-144.31 156.87,-251.45 305.2,-233.55 236.84,28.59 609.82,55.52 811.29,98.81 22.97,109.05 -2.64,486.7 -3.54,625.41 -1.35,209.12 -2.39,422.5 -6.33,631.61 -125.83,-17.76 -1192.61,3.47 -1466.9,-18.71zm-225.89 -1694.96l1948.57 229.45c-9.69,276.13 3.91,565.16 3.44,843.35l-2.98 638.27c-12.25,46.3 -50.27,106.16 -98.9,117.07 -10.08,-242.74 7.73,-510.54 9.49,-754.99 0.91,-126.93 1.38,-254.13 3.35,-380.37 1.22,-79.31 14.22,-314.4 -0.22,-376.43 -284.87,-29.12 -592.33,-76.46 -880.43,-112.11 -301.61,-37.3 -599.96,-75.21 -890.66,-109.54 18.85,140.89 -6.27,1540.52 -5.16,1736.43 564.88,3.63 1151.05,-13.36 1713.36,15.21 16.5,25.96 7.49,-5.31 -11.62,29.55l168.26 -10.34 -8.34 205c-34.92,-17.91 -17.63,-39.01 -4.1,-75.06 -619.71,2.21 -1234.89,29.52 -1850.99,10.92l-3.38 2086.56 1752.05 -150.51c17.67,-143.92 0.41,-1802.25 -5.6,-1925.48 35.3,15.75 38.07,47.85 58.94,81.92 80.03,130.75 53.91,84.1 55.75,345.66 1.52,213.51 12.18,1472.73 -6.36,1581.33l-1959.79 186.46 15.32 -4212.35zm-177.49 4384.75c164.94,-4.17 877.85,-77.96 1081.59,-99.6 354.65,-37.69 733.21,-73.53 1084.2,-102.33 530.2,-43.56 1086.82,-106.77 1618.96,-153.61 88.74,-7.8 182.38,-13.84 269.98,-25.11 44.99,-5.79 87.97,-10.48 137.6,-14.57 48.39,-4.01 80.5,-0.81 119.03,-20.84 24.78,-12.88 9.6,-815.77 9.28,-903.12 -1.11,-305.8 -2.38,-611.63 -2.54,-917.61l-5.33 -1788.58c-10.04,-62.72 10.19,34.57 -3.78,-15.6l-5.74 -13.89c-31.97,-27.81 -3778.78,-434.59 -4284.3,-511.46l-18.95 4566.32z"/>
   <path class="fil0" d="M11480.33 4268.83c193.4,12.53 385.13,35.4 582.55,48.03 310,19.82 469.95,78.04 635.7,306.96 56.78,78.38 60.1,131.36 71.42,244.38 15.12,151.13 51.89,422.23 41.76,571.4l-1329.39 -8.57 -2.04 -1162.2zm1277.89 257.73c-59.46,-61.16 -15.64,-40.9 -122,-117.48 -45.1,-32.5 -145.53,-85.48 -153.67,-102.75l460.87 53.32 -6.28 815.78c0.16,54.01 12.43,237.33 -11.06,269.09 -1.51,-1.37 -3.39,-3.6 -3.97,-4.63 -22.55,-37.92 -11.71,-211.08 -12.13,-255.19l-1 -417.65c-1.27,-77.94 -25.07,-55.44 -23.31,-104.4 2.18,-60.77 5.79,-201.64 -3.76,-259.93l-128.6 -8.45 4.91 132.29zm-1421.09 1070.02c128.64,11.41 304.97,-0.22 439.64,0.73l1103.15 8.17c58.06,0.17 149.78,11.53 203.48,4.72 -41.57,-124.13 -26.54,-788.41 -26.17,-1000.17 0.17,-89.64 6.99,-259.17 -5.71,-339.17 -62.53,-29.55 -1521.63,-171.34 -1702.75,-185.6l-11.64 1511.32z"/>
   <path class="fil0" d="M6489.59 3654.62l1002.88 2.44 -0.08 4554.8 1106.31 -0.95 1.71 -4771 635 -472.05c374.93,-266.04 758.89,-562.31 1132.47,-823.19l815.69 -584.42 1161.94 849.94c312.51,250.26 814.03,621.34 1146.45,865.02l333.28 249.12 1.01 4659.9c318.99,10.82 802.71,2.11 1145.44,2.06 5.24,-1508.79 -3.01,-3020.99 -10.75,-4529.8l967.97 -1.12c-18.67,-30.51 -298.47,-236.71 -353.1,-277.14l-990.76 -751.81c-115.41,-85.29 -97.68,-34.94 -97.45,-250.15l-0.44 -920.1 -1000.31 -4.97 -4.25 282.16c-73.6,-43.24 -466.97,-347.25 -566.73,-422.07l-1135.44 -848.28c-56.38,-41.55 -525.69,-404.78 -569.05,-424.11 -36.13,18.53 -108.31,80 -149.43,111.68 -523.21,403.27 -1115.81,822.64 -1627.36,1227.32 -97.33,77 -197.85,148.46 -295.2,223.88l-300.05 228.12c-199.46,153.92 -394.49,298.86 -589.62,448.55 -202.06,155.04 -384,301.26 -589.88,457.45 -67.81,51.46 -1144.65,870.22 -1170.25,918.72z"/>
   <path class="fil0" d="M699.86 10187.13l-1.6 68.77 619.17 -0.16c2.35,-43.65 -2,-117.36 17.83,-145.95 -22.91,-189.65 115.61,-789.69 167.58,-981.22 75.75,-279.04 191.61,-590.97 311.88,-837.5 119.88,-245.75 375.44,-697.68 537.36,-899.19l124.92 -162.55c21.48,-26.23 43.8,-46.46 65.41,-73.32 12.86,-15.97 16.75,-26.07 31.72,-42.6 36.32,-40.08 153.48,-163.99 165.69,-194.21 -27.57,-49.21 -67.4,-85.01 -105.99,-117.81 -72.74,-61.8 -261.87,-280.17 -330.1,-311.35 -21.06,13.92 -56.44,52.9 -80.64,78.03l-230.24 270.69c-308.59,383.14 -543.06,767.23 -763.76,1229.31 -267.95,560.94 -527,1488.85 -529.23,2119.06z"/>
   <path class="fil0" d="M11960.55 10951.31c25.82,178.19 -105.8,782.94 -151.36,958.25 -184.63,710.18 -489.97,1294.55 -916.36,1864.32l-249.51 310.26c7.29,18.66 0.08,3.78 9.95,18.74l87.66 107.35c52.1,55.59 275.37,290.56 334.08,324.63l290.71 -344.52c360.22,-450.28 719.14,-1102.08 906.02,-1652.33 151.7,-446.69 316.64,-1116.82 322.99,-1588.23l2.49 -114.6 -624.9 -0.21c0.86,39.37 1.81,87.06 -11.77,116.34z"/>
   <path class="fil0" d="M11973.75 10251.1c55.1,11.2 374.73,5.18 470.37,4.15l150.78 -9.85 0 -73.82c11.21,-358.54 -179.8,-1184.61 -308.33,-1547.71 -50.3,-142.1 -114.06,-323.66 -185.41,-447.48l-626.51 72.61c-0.25,33.04 145.03,363.29 172.06,438.71 56.45,157.47 110.7,303.86 155.51,475.66 97.97,375.55 135.73,685.57 171.53,1087.73z"/>
   <path class="fil0" d="M697.84 10921.51c7.15,384.98 105.59,837.67 195.03,1188.52 128.26,503.19 362.97,1039.99 621.37,1473.77 134.23,225.35 330.58,510.99 501.3,712.98 571.04,675.6 1255.57,1226.68 2063.25,1607.74 594.25,280.4 1463.44,553.58 2221.78,563.04l55.83 -0.65 0.12 -612.62c-34.15,-2.48 -61.65,-1.06 -84.36,-14.19 -191.65,26.43 -864.79,-121.41 -1063.7,-175.98 -882.08,-242.07 -1695.62,-737.15 -2341.46,-1365.73l-229.09 -243.46c-157.57,-148.66 -467.54,-601.13 -589.9,-800.34 -73.42,-119.56 -148.2,-262.69 -212.16,-399.35 -129.59,-277.01 -254.79,-577.78 -335.78,-897.17 -53.14,-209.69 -202.52,-847.73 -173.91,-1058.26l-11.8 -65.2 -621 -0.79 4.48 87.69z"/>
   <path class="fil0" d="M7005.86 15842.82l-63.86 14.1 1.68 615.56c350.36,6.73 840.25,-88.36 1161.14,-166.71 607.7,-148.39 1340.42,-463.79 1855.74,-822.45 133.44,-92.87 266.84,-179.62 389.15,-278.47 41.47,-33.53 339.49,-273.66 363.7,-314.25 -20.02,-59.19 -67.47,-79.19 -107.35,-119.24 -68.3,-68.57 -66.51,-84.07 -97.06,-116.36 -24.94,-26.32 -36.78,-27.79 -59.35,-51.77 -40.88,-43.49 -120.31,-133.4 -179.98,-141.07 -56.96,39.22 -103.23,87.53 -158.95,132.42 -215.94,173.96 -436.26,336.87 -677.79,480.36 -450.39,267.57 -894.64,473.35 -1420.95,609.13 -219.5,56.63 -781.72,178.99 -1006.12,158.75z"/>
   <path class="fil0" d="M2680.37 6116.64c20.99,68.12 155.11,170.88 205.29,229.37l223.15 210.17c27.63,-25.06 42.48,-32.95 76.72,-63.24 110.25,-97.43 468.53,-353.1 566.01,-416.5 582.5,-378.77 1336.51,-671.72 2034.28,-783.92 113.42,-18.25 396.25,-70.29 501.9,-60.21 20.67,-9.9 17.6,-3.63 30.68,-8.81 40.15,-15.86 14.28,9.85 31.75,-20.27l-0.11 -602.16 -88.11 5.91c-665.64,21.88 -1440.99,254.77 -2035.84,506.07 -397.32,167.84 -1049.19,561.26 -1375.72,849.25l-170 154.34z"/>
   <path class="fil0" d="M11973.75 10251.1l-447.05 3.37 -10.73 -53.36 0.61 54.35 -476.25 -0.09 -15.97 -49.34 1.11 47.64c-155.19,-6.92 -393.62,-11.49 -546.47,0.05 -343.16,25.94 -353.02,550.51 -8.57,582.02 163.77,14.99 376.04,1.27 546.31,3.55l5.09 61.89c12.8,-20.6 8.41,-35.19 9.92,-67.12l489.21 1.5 -0.43 58.61c4.15,-7.91 3.93,-2.47 10.65,-26.67 3.75,-13.51 3.39,-15.86 4.59,-29.14l427.86 -2.07 -3.08 115.02c13.58,-29.28 12.63,-76.97 11.77,-116.34l624.9 0.21 -2.49 114.6 14.51 -55.87c2.1,-17.86 1.58,-38.19 1.71,-56.27 118.88,2.17 352.45,18.38 444.22,-17.84 93.47,-36.92 186.12,-148.01 187.26,-277.75 1.19,-136.02 -90.94,-232.53 -193.53,-270.94 -92.71,-34.7 -324.51,-15.27 -439.73,-16.74l-14.27 -82.79 0 73.82 -150.78 9.85c-95.64,1.03 -415.27,7.05 -470.37,-4.15z"/>
   <path class="fil0" d="M6946.88 14910.69c-18.28,37.33 -6.48,406.13 -5.63,477.69l59.81 -0.29c500.76,3.91 1243.11,-223.84 1686.38,-427.24 474.91,-217.9 746,-405.54 1129.3,-715.46 29.8,-24.08 37.55,-28.32 69.85,-59.95 19.57,-19.15 52.12,-51.29 82.29,-58.91 -15.97,-30.47 -132.89,-136.35 -177.96,-180.51 -10.11,-9.92 -14.07,-11.77 -24.49,-21.87l-64.38 -65.42c-30.35,-30.81 -53.39,-64.22 -93.22,-80.94 -495.2,454.05 -1193.86,823.48 -1849.19,995.41 -374.92,98.39 -468.16,84.49 -812.76,137.49z"/>
   <path class="fil0" d="M2303.73 6490.04c68.23,31.18 257.36,249.55 330.1,311.35 38.59,32.8 78.42,68.6 105.99,117.81 46.83,14.52 134,119.88 174.04,158.36 30.84,29.62 54.94,50.54 85.47,81.35 24.31,24.52 77.42,60.24 64.08,90.76 60.83,20.93 69.56,83.08 128.9,123.2 35.38,23.94 18.46,16.38 45.96,48 68.08,78.27 161.31,113.88 152.6,189.39 21.75,-7.74 155.15,54.17 -208.02,-318.85 -1.39,-1.35 -3.51,-3.06 -4.92,-4.43l-19.31 -20.12c-1.34,-1.61 -2.95,-3.92 -4.2,-5.52 -36.95,-47.64 -20.47,-13.94 -57.82,-41.26l-188.86 -183.68c-59.92,-85.29 -11.19,-6.35 -96.56,-97.66 -51.22,-54.79 -91.9,-116.18 -153.41,-170.25 -57.33,-50.38 -64.58,-40.76 -110.26,-114.6l-14.5 -20.89c-0.65,-0.7 -24.96,-17.32 -31.45,-21.82 -60.85,-42.1 -77.95,-96 -100.45,-113.53 -34.73,-27.07 -45.13,-1.89 -49.5,-63 -2.42,3.04 28.28,7.67 -13.06,3.56 -64.65,-6.41 -33.36,-50.42 -71.49,-68.95 -58.72,-28.51 -24.95,-13.83 -61.92,-50.22 -2.87,-2.81 -269.19,-231.91 -334.02,-329.23 -89.36,-134.1 -18.76,-281.47 91.31,-330.51 185.65,-82.75 310.99,108.36 466.59,262.26 42.89,42.4 89.52,85.25 124.17,127l105.38 125.31c31.46,30.58 84.93,99.16 113.42,117.25 89.51,56.86 174.08,174.17 253.76,248.21 22.96,21.33 48.1,34.84 67.95,52.53l158.49 156.13c30.12,26.96 10.99,18.71 48.57,23.82 -13.69,-31.17 -2.77,-13.39 -25.25,-37.92 -10.15,-11.08 -17.05,-16.06 -28.22,-26.87 -19.72,-19.08 -32.47,-31.81 -51.55,-50.38 -21.39,-20.81 -89.18,-73.9 -86.93,-100.46l-223.15 -210.17c-50.18,-58.49 -184.3,-161.25 -205.29,-229.37l-25.74 6.93c-24.44,-46.5 -269.98,-273.33 -331.12,-337.17 -44.49,-46.46 -111.88,-126.03 -179.76,-154.95 -177.66,-75.63 -391.72,92.86 -321.77,311.67 29.4,91.94 237.87,279.97 313.86,355.33 44.51,44.15 129.36,141.28 174.24,169.53 -3.57,23.07 3.68,1.5 -6.35,22.06z"/>
   <path class="fil0" d="M7010.69 5225.87c52.71,-8.25 87.56,5.13 138.84,4.55l2.81 -621.05 -204.59 -8.89 -2.77 612.37c32.74,3.06 45.05,-0.8 65.71,13.02z"/>
   <path class="fil0" d="M6984.12 6179.76c55.12,-9.29 110.79,3.62 167.16,5.44l0.55 -454.88c-0.24,-43.36 7.47,-41.68 -20.58,-51.19 -12.54,-4.25 -68.18,-1.66 -83.56,-0.9l-103.62 -3.79 1.45 483.47 38.6 21.85z"/>
   <path class="fil0" d="M5382.47 8852.38c21.39,23.36 31.26,37.8 65.55,50.81 -16.96,-152.58 -29.65,-309.9 -43.05,-464.79 -6.71,-77.57 -3.19,-154.25 -13.3,-231.9 -9.93,-76.17 -22.81,-153.95 -22.41,-231.93l-14.29 -7.75c-44.18,48.36 -21.02,128.31 -16.66,205.49 4.61,81.25 9.17,160.22 10.44,241.71 1.19,77.7 45.17,407.17 33.72,438.36z"/>
  </g>
  <path class="fil1" d="M1808.19 5664.34l0 0c127.76,-128.43 337.38,-128.97 465.84,-1.18l9198.6 9151.49c128.44,127.79 128.99,337.41 1.2,465.84l0 0c-127.78,128.46 -337.4,128.98 -465.84,1.19l-9198.6 -9151.5c-128.45,-127.78 -128.99,-337.4 -1.2,-465.84z"/>
 </g>
</svg>
