<svg xmlns="http://www.w3.org/2000/svg" xml:space="preserve" width="195mm" height="145mm" style="shape-rendering:geometricPrecision;text-rendering:geometricPrecision;image-rendering:optimizeQuality;fill-rule:evenodd;clip-rule:evenodd" viewBox="0 0 19500 14500"><defs><style>.fil26{fill:#000}.fil24{fill:#373948}.fil6{fill:#464a4c}.fil13{fill:#535454}.fil25{fill:#5a5c5c}.fil19{fill:#5c5e60}.fil38{fill:#5e615e}.fil14{fill:#5e6264}.fil33{fill:#676966}.fil32{fill:#6b6c6c}.fil34{fill:#72706d}.fil15{fill:#868889}.fil30{fill:#8f908f}.fil42{fill:#9e9e9f}.fil27{fill:#a8a8ab}.fil18{fill:#b6b8b9}.fil35{fill:#cdced0}.fil22{fill:#dcdddd}.fil1,.fil2{fill:#e31e24}.fil2{fill-rule:nonzero}</style></defs><g id="Katman_x0020_1"><path d="M12944.13 13522.58c196.66-44.25 1194.71-29.5 1440.53-14.75l78.68 122.91c-295 108.16-1135.72 14.75-1489.71 14.75zm1396.28-196.67c-152.4 44.25-1322.53 29.5-1538.86 14.75l-44.25-137.66c93.41-63.91 1489.7-34.41 1568.36-14.74zm-78.66-309.74c-231.06 14.75-1396.29 49.18-1548.7-14.75l-14.75-122.91c103.25-58.99 226.17-44.24 398.24-44.24 339.24 14.75 889.9-14.75 1179.96 14.75zm14.75-521.14-14.75 167.15H12698.3c-19.66-122.9-19.66-88.49 29.5-167.15 122.91-44.25 1337.3-14.75 1548.7 0m4365.87 614.56c-417.9-78.67-260.58-875.14 88.5-737.47 186.83 78.66 201.58 304.81 172.08 476.9-63.91 521.14-521.16 462.14-614.57 108.16-29.5-172.08-63.91-403.16 59-540.81 108.17 157.32 0-196.67 49.16 93.41 0 44.24-49.16 93.41-49.16 152.4-14.75 78.68-29.5 491.66 294.99 447.41m-5929.32-801.4c44.25-196.65 88.5-167.15 319.58-167.15 260.58 0 1155.38-14.75 1322.55 14.75l-29.52 137.66c-172.07 49.17-1415.95 49.17-1612.61 14.74m-3441.56-167.15c181.91-181.91 585.06-108.16 830.89-108.16 506.4 0 2532.01-44.25 2748.33 29.5l-172.07 108.16c-103.25 63.91-471.99 0-673.57 0zm5265.59-245.83-88.49 108.17-1597.88 14.75v-122.92l137.67-44.25 44.25-137.66c-73.75-186.83 157.32-157.33 280.24-172.08 137.66-73.75 1027.54-44.25 1347.12-44.25h216.33c93.41 0 29.5 29.5 78.66-63.91 304.83-14.75 260.58 63.91 290.08 78.66 245.82-63.91 260.58 14.75 447.4 29.5 181.92 0 167.16-44.25 368.74-29.5-93.41 59-78.66 44.25-93.41 93.42v29.5c-398.24 44.25-860.4-14.75-1243.88 29.5zm-2610.67-629.31h-550.65c73.75 108.16 44.24 231.07 0 353.99 491.65-63.92 304.82-29.5 845.64-49.17 152.41 0 644.06 34.42 752.23-14.75l-29.5 157.33c-157.33 59-1140.64 44.25-1322.55 0-93.41 137.66-1106.21-49.16-1199.62-108.16h766.98c-245.83-93.42-2763.09-172.08-2900.75-78.67 216.33 29.5 811.22 14.75 1057.05 0 339.24-29.5 648.98 14.75 953.81 44.25-260.58 19.67-368.74 34.42-599.82 0-122.92-29.5-412.99 63.92-565.41 78.67-260.56 29.5-693.21 0-968.54 14.75-294.99 0-201.58 29.5-245.83-44.25l-122.91 152.41c260.57 0 1076.72-59 1258.62 14.75-108.16 201.58-427.73 137.66-673.56 137.66-201.57 0-599.81-29.5-771.89 14.75l-14.75 157.33c368.74-93.41 875.13-14.75 1258.62-63.91l-59 201.57c-152.4 14.75-1258.62 29.5-1288.12-14.75v-34.41c-49.16 49.16-19.66 93.41 0 186.83l1258.62 14.75-14.74 167.15c-265.48 34.42-1140.63-58.99-1278.29 19.67v-157.32c-59 93.41-44.25 108.16-29.5 216.32l44.25 63.92c231.07 73.75 939.05-34.43 1243.87 29.5v152.4c-152.41 29.5-1120.96 29.5-1273.37 0 49.16 152.41 0 201.59 93.41 260.58-44.25-108.17-29.5 0-29.5-122.92 211.41 0 1150.46-29.5 1288.12 29.5v142.59c-216.32 29.49-1061.95 29.49-1243.87-34.42 14.75 93.41 14.75 78.66 44.25 137.66 49.17 78.66 34.41 49.16 49.17 142.58l58.99 29.5-44.24-137.67c383.48 29.5 845.64-34.41 1214.38 29.5l88.49 122.92-1179.96 29.5v93.41c167.16 108.16 231.08 167.16 462.15 201.58 703.06 59 4700.19-122.92 4773.94-78.67 78.66 108.17 0 44.25 122.91 122.92-14.75-122.92 14.75-78.67-44.25-108.17l152.41 44.25c432.66 93.42 968.55-44.25 1430.7 63.92l-63.91 29.5c570.32 29.5 462.16 108.16 1214.38 0 324.49-44.25 904.65-44.25 1214.39-59 231.06 0 1642.11-63.92 1828.94-172.08 108.16-73.75 73.75-108.16 108.16-211.41 59-157.33 260.58-339.23 211.42-801.39-29.51-245.82-44.26-304.82-122.92-535.9-29.5-78.66-44.25-231.08-275.33-353.99-108.16-49.16-398.23-93.41-521.15-78.66-108.16 0-172.08-14.75-260.58-14.75-78.66 0-63.91 78.66-231.07 29.5-398.23-108.17-186.83 49.16-540.82-29.5-226.15-44.25-658.81-14.75-963.63-29.5-122.92 0-186.83 14.75-260.58-14.75 167.17-172.08 963.64-108.17 1224.21-93.42 447.4 29.5 860.39 14.75 1307.8 44.25-181.92-122.91-2182.93-73.75-2595.92-108.16l-14.75-152.41c550.65-44.25 2827 14.75 3008.91-44.25z" style="fill:#3d413d"/><path d="M3234.02 8483.15c93.41 122.91 58.99 339.24 29.49 491.65-58.99-88.5-29.49-137.66-58.99-245.82-34.43-152.42-93.43-122.92 29.5-245.83m231.06-8382.66c-172.07 0-186.82 14.75-294.99 137.66-304.81 353.99-383.49 737.48-334.31 1229.13 14.75 231.08 304.81 442.48 275.31 889.89 167.17 290.07 0 4946.02 44.25 5742.49v93.41l-73.74 14.75c44.24-44.25 88.49-14.75 152.42 0 122.9 14.75 122.9 78.67 122.9 78.67v29.5l-781.72-59 290.08 73.75c137.66 0 201.57 49.16 324.49 63.91 73.74 14.75 59-14.75 122.91 0 44.24 14.75-19.67 0 44.24 29.5 14.75 0 14.75 14.75 29.5 0v14.75l49.16-216.33c334.33 49.17 245.83 417.91 14.75 368.74-122.9-14.75-93.41-108.16-231.06-137.66-93.43-44.25-216.33-29.5-324.49-59l14.75 88.5c0 108.16-14.75 216.33-14.75 309.74 14.75 108.16 49.16 167.16 63.91 260.58h122.91l44.24-181.92c78.68 88.5 63.93 73.75 29.5 181.92 216.33-29.5 157.34-152.42 417.92-29.5l-34.43-93.42v-14.75c142.58 14.75 19.68 29.5 122.92-14.75 93.41-324.49 172.07-1076.72 201.57-1445.46 44.25-491.64 122.92-1012.79 186.83-1504.45 122.91-998.05 226.16-2025.6 383.49-3008.91l14.75-324.49C4173.06 2371.92 3647 2308 3725.66 1772.1l59 29.5v-181.9l-88.5-14.75c44.25-172.09 167.16-231.08 319.58-275.33l-14.75 245.83c172.07-93.42 260.57-19.68 398.24 59 108.16 550.64-471.99 550.64-471.99 44.24-78.67 49.17-63.92 157.33-108.17 245.82 44.25 201.58 211.42 280.24 383.49 368.74 152.42 78.67 304.83 216.33 462.16 294.99 304.82 181.92 609.65 383.49 934.14 580.16L7427.8 4323.78c462.15 319.57 845.64 535.89 1366.8 904.63 585.05 432.66 737.47 585.07 1150.45 1076.72 280.25 339.24 476.91 860.4 585.07 919.39l-14.75-275.32c-29.5-260.58-216.32-629.32-216.32-875.14l93.41-29.5c-93.41 14.75-108.16 29.5-152.41-49.17-157.33-14.75-186.83-211.41-108.17-260.57 196.67-383.49 580.16 93.41 353.99 275.32 88.5 172.08 580.16 2001.02 629.32 2276.35l29.5-49.17c245.83 368.74 550.64 1263.55 816.13 1524.13l73.75 122.91 29.5-417.9 93.41-1396.3v-152.41l-29.49-63.92-14.76 280.24-108.16-260.57c-309.74-462.16-830.88-1878.11-1243.87-2458.26-353.99-526.07-555.57-614.57-953.81-924.31L7457.3 3124.15c-398.24-216.33-811.23-427.74-1179.96-658.82l-614.57-339.24c-172.07-93.41-403.15-231.08-570.31-339.24-462.16-290.07-889.9-334.32-1106.22-752.22l63.91-14.75-122.91-152.41-34.42-49.17-59-196.66-14.75-93.41c-78.66-29.5-93.41 0-93.41-122.92l-93.41-14.75V115.24l-73.74-49.17c44.24 137.67 73.74 63.92-19.68 108.17-88.5-29.5-29.5 49.16-73.75-73.75" class="fil1"/><path d="m4433.64 2942.23 2473.01 1612.63c412.99 260.56 811.23 550.64 1229.13 825.97 196.66 137.66 383.49 294.99 580.14 447.4 231.08 201.58 324.49 304.83 506.41 535.9 157.32 14.75 245.82 309.74 294.99 447.41l14.75-63.93c181.91 353.99 383.49 678.48 570.31 1047.22 122.92 275.33 442.49 889.9 486.74 1150.47l78.67 93.42h78.66c260.58 339.24 231.08 550.65 368.74 875.14h73.75c-29.5-44.25-398.24-1430.71-383.49-1533.96l245.83-34.41 368.74 1401.21c63.91 245.82 108.15 476.9 186.82 722.73 58.99 226.15 152.41 471.98 181.91 717.8l137.66 78.67 7035.54-14.75c122.91 0 122.91 14.75 201.57-49.17-122.91 0-93.41 0-201.57-29.5-88.5-29.5-122.91-14.75-211.41-14.75l-1494.63-29.5c-319.56 0-658.8-29.5-998.04-29.5-304.83 0-614.57 0-934.15-19.66-309.74-14.75-678.48-73.75-968.54-73.75l-939.06-14.75c-122.91-14.75-349.08-63.91-471.99-49.16-142.58 19.66-309.74 19.66-447.4-44.25-275.33-93.42-216.33-231.08-309.74-693.23-167.17-290.07-122.92-412.98-122.92-737.47l-29.5 417.9-73.75-122.91c-265.49-260.58-570.3-1155.39-816.13-1524.13l-29.5 49.17h-93.41l-122.92 14.75-383.49-1352.04 14.75 275.32c-108.16-58.99-304.82-580.15-585.06-919.39-412.99-491.65-565.41-644.06-1150.46-1076.72-521.16-368.74-904.65-585.06-1366.8-904.63L5598.86 3168.4c-324.49-196.67-629.32-398.24-934.14-580.16-157.33-78.66-309.74-216.32-462.16-294.99-172.07-88.5-339.24-167.16-383.49-368.74l-34.41-122.91-59-29.5c-78.66 535.9 447.4 599.82 722.73 845.64z" class="fil1"/><path d="M6891.9 4584.36 4399.22 2971.73l49.17-63.91L6921.4 4520.43zm0 0h-19.67zm1258.63 766.97-49.17 63.91-152.41-108.16-152.41-108.17-137.66-108.16-152.42-93.41-157.33-108.17-152.41-103.25-152.41-108.15-152.41-93.41 29.5-63.93 152.41 93.42 152.41 108.16 157.33 108.16 152.41 108.17 152.41 108.16 152.42 88.5 152.41 108.16zm580.14 447.4-44.25 59-78.66-59-58.99-63.91-78.68-59-58.98-49.17-78.67-59-73.75-49.16-78.66-59-78.67-44.25 49.17-63.91 73.75 44.25 78.66 63.91 78.66 44.25 73.74 63.91 63.93 59 73.74 49.17 63.92 59zm491.65 535.9v78.67l-29.49-14.75-59.01-93.42-63.91-78.66-59-59-49.16-63.91-58.99-59-63.93-63.92-58.98-59-93.43-63.91 44.25-59 93.42 73.75 63.92 63.91 73.74 59 49.16 63.92 59 59 63.91 78.66 44.25 59 78.67 93.41zm0 78.67h-29.49v-14.75zm265.49 398.24 59 14.75h-59l-19.66-59-29.5-63.92-29.5-78.66-29.5-73.75-14.75-29.5-19.66-34.41-29.5-14.75-14.75-29.5-14.75-14.75-29.5-14.75h-34.42v-78.67h34.42l14.75 14.75h14.75l29.5 14.75 29.5 34.42 34.41 29.5 14.75 29.5 29.5 29.5 14.75 34.41 29.5 73.75 34.41 78.66 29.5 73.74 14.75 49.18zm59 14.75-14.75 108.16-44.25-108.16zm29.5-59-29.5 59-59-14.75 14.75-78.67h59.01zm-73.75-34.42 29.5-88.5 29.51 88.5zm629.32 1047.21-63.91 29.5-73.75-137.66-63.91-122.91-73.76-137.67-63.91-122.9-78.66-137.66-73.75-122.92-63.92-122.91-73.75-137.66 59.01-34.42 78.66 122.92 59 137.65 78.66 122.91 78.66 122.92 59 142.58 78.67 137.67 73.75 122.9zm491.66 1135.72-63.92 44.25v-14.75l-14.75-44.25-14.75-63.91-29.5-59-14.75-78.66-78.66-152.42-59-152.41-78.67-172.08-78.66-152.41-73.75-137.66-49.16-122.92 63.91-29.5 59 122.92 63.92 137.66 73.74 152.41 78.67 167.17 78.66 157.32 59 152.42 29.5 78.66 19.66 73.75 14.75 63.91 14.76 44.25zm-63.92 44.25v-14.75zm78.66 93.42-78.66-93.42 63.92-44.25 73.74 93.42-29.49 59zm29.51 14.75h-14.76l-14.75-14.75zm78.66 0h-78.66v-73.75l93.41 14.75 14.75 14.75zm14.75-59h14.75v14.75zm353.99 875.14v58.99l-34.41-14.75-29.52-58.99-14.73-63.91-29.51-59-14.74-49.18-14.76-108.15-34.41-88.5-14.75-63.91-14.75-44.25-29.5-49.17-14.75-59-34.41-44.25-29.5-63.91-44.25-59-29.5-63.91 44.25-29.5 44.25 59 49.16 63.91 29.5 59 29.5 49.16 29.5 59 19.66 49.17 14.76 59 14.74 44.25 29.51 108.16 29.48 108.16 14.77 49.17 19.66 59 14.75 44.24 29.5 63.92zm0 58.99h-34.41v-14.75zm73.75 0h-73.75v-58.99h108.16zm34.41-58.99 29.5 58.99h-63.91zm-432.65-1538.87 14.75 63.91 29.5-29.5v29.5l19.66 59 14.75 78.66 14.75 108.17 59 231.07 78.66 275.33 59.01 260.58 63.91 245.82 29.5 93.42 14.75 59 14.74 63.91h19.67l-63.91 44.24-14.75-29.49-14.75-44.25-29.5-78.66-19.66-93.42-73.76-231.07-63.91-275.33-59-260.58-63.91-245.82-29.5-108.17-14.75-78.66-14.75-59v-44.25zm-29.5 34.41v-34.41h29.5zm304.81 0-260.56 29.5-14.75-63.91 260.56-44.25 49.18 29.5zm-14.75-78.66h29.52l19.66 29.5zm339.24 1445.46-368.73-1401.21 78.67-14.75 349.07 1401.21zm245.83 703.05-78.66 34.43-14.75-93.43-29.49-93.41-14.75-93.41-29.5-88.49-19.67-93.43-14.76-93.41-29.48-93.41-14.77-88.49 59.01-14.75 34.42 88.5 14.75 93.41 29.49 93.41 14.75 93.42 14.75 88.49 34.42 93.41 14.75 78.66zm167.16 707.98-29.49 63.92-14.76-34.42-14.75-88.5-29.5-93.41-19.66-78.66-29.5-88.5-14.75-93.42-29.5-93.41-29.49-93.41-34.42-73.74 78.66-34.43 29.5 93.42 14.75 93.41 34.41 93.41 29.5 73.75 29.51 93.42 14.74 93.41 14.75 88.5 14.76 93.41zm-29.49 63.92-14.76-19.67v-14.75zm137.66 73.75-137.66-73.75 29.49-63.92 137.67 78.67-14.75 59zm14.75 0h-14.75zm7035.54-14.75-7035.54 14.75v-59l7035.54-34.42zm201.57-44.25v-63.92l29.51 63.92-29.51 14.75-29.5 14.75-14.75 14.75h-157.32v-78.67l78.66 19.67h44.25v-19.67h14.75l19.66-14.75 29.51-14.75zm0-63.92h108.17l-78.66 63.92zm-201.57 29.5 14.75-59 63.91 14.75h29.5l29.5 14.75h63.91v63.92h-108.16l-44.25-14.75zm-211.42-14.75v-73.75h103.25l34.42 14.75h59l29.5 14.75-14.75 59h-29.5l-29.5-14.75zm-1494.62-108.16 1494.62 34.41v73.75l-1494.62-29.5zm-998.04 49.16v-78.66h122.91l137.66 14.75h245.82l122.91 14.75h368.74v78.66h-245.83l-122.91-14.75h-245.83l-137.65-14.75zm-934.15 0v-78.66h934.15v78.66zm-968.54-93.41v-73.75l122.9 14.75h122.91l122.92 14.75 122.91 14.75 122.91 14.75 122.92 14.75h122.91l108.16 14.75v78.66l-122.91-14.75-122.92-14.75-122.91-19.66h-122.91l-122.92-14.75-122.91-14.75-108.16-14.75zm-939.06-93.41 939.06 19.66v73.75l-939.06-14.75zm-471.99 49.16v-78.66h167.16l78.66 14.75h59.01l63.91 14.75h122.91l-19.66 78.66h-44.25l-59-14.75h-78.67l-63.91-14.75h-122.91l-59-14.75zm-462.16-49.16 14.75-73.75 59.01 14.75 49.16 14.75 59 14.75h280.24v78.66h-231.08l-63.91-14.75h-59l-63.92-14.75zm-324.49-717.81 63.92-49.17v14.75l29.5 172.07 14.75 122.93 14.75 58.99v49.16l14.75 44.25 14.75 44.25v34.41l19.66 29.5 14.75 14.75v14.75h14.75l14.75 14.75 14.75 29.5 29.5 19.67 49.17 14.75 29.49 14.75-14.75 73.75-49.16-29.5-44.25-14.75-44.25-29.5-34.41-14.75-14.75-34.42v-14.75l-14.75-14.75-14.75-14.75-14.75-29.5-14.75-49.16-14.75-44.25v-44.25l-14.75-49.16v-59l-34.42-137.67-29.49-157.32zm63.92-49.17v14.75zm-122.91-707.97h-78.67zv417.9l14.74 29.5v44.24l14.75 34.42 14.76 44.24 14.74 44.25 29.51 49.18 34.41 44.24-63.92 49.17-29.5-63.91-29.49-44.25-14.76-49.18-19.66-44.25-14.75-44.24-14.75-49.17v-29.49l-14.75-44.25v-388.4zm-93.42 417.9 14.75-417.9h78.67l-34.42 417.9-59 14.75zm59 0v108.16l-59-93.41zm-73.75-137.66 73.75 108.16-59 44.25-78.66-108.16zm-816.13-1474.96-59-49.17h59l49.16 78.67 44.25 93.41 58.99 88.5 49.17 93.41 93.42 231.08 103.24 216.33 63.91 122.91 44.25 108.16 49.18 88.5 58.98 108.17 49.18 93.41 44.24 78.66 29.5 29.5 29.5 29.5 19.66 29.49 29.5 34.43-63.91 44.25-14.75-29.5-29.5-29.5-29.5-34.43-34.41-44.24-44.25-78.66-44.24-88.5-63.93-93.41-44.25-108.17-63.91-108.16-44.24-122.91-108.16-216.33-93.43-231.08-58.99-88.5-49.17-93.41-44.24-93.41-44.25-73.75zm-59-49.17 44.25-44.25 14.75 44.25zm-34.41 34.42 34.41-34.42 59 49.17-29.5 44.25h-29.5zm63.91 59h-29.5zm-122.92-78.67 93.42 19.67v59h-93.42l-14.75-78.67zm-14.75 0h14.75zm-122.91 34.42 122.91-34.42 14.75 78.67-122.91 14.75-44.25-14.75zm14.75 59-29.5 14.75-14.75-29.5zm-353.99-1381.54 383.49 1337.29-73.75 29.5-368.74-1352.04zm-59 14.75-14.75-304.83 73.75 290.08zm0 260.57v-260.57l73.75-14.75v275.32l-59 34.42zm73.75 0v63.92l-59-29.5zm-644.07-889.89 63.92-44.25 44.25 59 59 78.67 49.16 59 44.25 78.66 78.67 137.66 73.74 137.67 78.67 137.66 63.91 108.15 14.75 49.18 29.5 29.5 14.75 14.75 14.75 14.75-44.25 63.91-14.75-19.67-34.41-29.49-29.5-44.25-14.75-49.18-59-103.24-78.67-122.91-78.66-142.59-73.75-152.4-49.16-59-44.25-78.66-44.25-59zM8765.08 5257.91l44.25-59 201.58 152.42 167.16 122.91 78.67 63.91 73.75 59 63.91 63.92 59 59 63.92 44.25 58.99 63.91 63.92 78.66 59 59 137.66 152.42 142.58 172.07-63.92 44.25-137.66-167.16-122.91-157.33-63.92-59-59-63.91-63.91-59-59-63.91-63.91-59-59-44.25-78.67-63.92-73.75-59-172.07-122.91zm-1352.03-904.63 29.5-59v14.75l167.16 108.16 172.08 103.24 167.16 108.17 152.41 108.16 172.08 108.16 167.17 108.17L8627.43 5076l181.9 122.91-44.25 59L8578.26 5135l-167.15-122.91-186.83-103.24-152.41-108.18-167.17-108.16-172.08-108.15-152.41-108.18zm29.5-59v14.75zM5613.61 3138.9l1828.94 1155.38-29.5 59-1843.69-1150.47zm-968.56-521.16 34.42-63.91 122.91 78.66 103.25 78.67 122.91 59 108.16 78.66 122.92 73.75 122.91 63.91 108.17 78.67 122.91 73.75-44.25 63.91-108.16-78.66-122.92-78.67-122.91-59-108.17-78.66-122.91-73.75-108.16-63.91-122.91-73.75zm-457.24-290.07 29.5-63.92 59 29.5 63.92 34.42 58.99 44.25 49.17 44.25 59 34.41 63.91 44.25 44.25 29.5 63.92 29.5-34.42 63.91-59-29.5-63.91-34.41-59-44.25-44.25-44.25-63.91-34.41-59-44.25-49.17-29.5zm-417.9-403.16 78.66-14.75 14.75 34.43v29.5l14.75 29.49 29.5 29.5 19.67 14.75 14.75 34.41 29.5 14.75 14.75 14.75 63.91 44.25 44.25 29.5 59 34.41 63.91 44.25-29.5 63.92-63.91-34.42-59-44.25-63.92-29.5-58.99-49.16-34.42-14.75-14.75-29.5-29.5-29.5-14.75-14.75-29.5-49.16-14.75-29.5-19.66-29.49zm49.16-122.91 29.5 108.16-78.66 14.75-29.5-103.24 63.91-49.17zm-14.75-29.5 14.75 14.75v14.75zm-63.91-29.49 63.91 29.49-34.41 63.92-59-34.42-29.5-29.5zm-59 29.49 14.75-58.99 44.25 29.5zm811.23 845.64h-73.75l14.75 29.5-34.42-29.5-29.5-14.75-14.74-14.75-29.51-14.75-63.91-49.16-59-29.5-78.66-44.25-59-34.41-63.92-44.25-58.99-29.5-34.42-34.42-29.5-14.75-29.5-29.5-29.5-29.5-14.75-14.75-34.41-34.41-14.75-29.5-14.75-44.25-14.75-29.5-14.75-34.41-14.75-44.25-14.75-44.24V1772.1h73.75v216.33l14.75 29.5 14.75 29.5 19.66 34.41 14.75 29.5 14.75 29.5 14.75 29.5 29.5 14.75 14.75 34.41 34.42 14.75 29.49 29.5 14.76 14.75 58.99 29.5 63.92 49.17 78.66 29.5 59 44.25 63.92 34.41 59 44.25 29.5 14.75 34.41 14.75 29.5 34.41 29.5 14.75zm-14.75-29.5 14.75 14.75v14.75zm-93.41 353.99 34.41-324.49h73.75l-29.5 324.49-63.92 29.5zm14.74 29.5-14.74-14.75v-14.75z" class="fil2"/><path d="M102.19 11344.56c29.5 580.15 319.57 1057.06 535.9 1578.2 137.66 324.49 506.4 1214.38 904.64 1199.63 49.16-181.91-108.16-231.07-88.5-427.74 211.41 14.75 383.49 491.66 752.23 535.91 0-201.58-172.08-290.08-186.83-476.91 309.74 49.17 398.24 555.57 845.65 521.16-14.75-167.17-231.08-334.33-231.08-506.41 290.07 0 339.24 432.66 678.48 540.82 167.15 44.25 103.24 14.75 137.65-19.66 29.5-181.92-172.07-349.08-122.9-609.66-245.83-294.99-353.99-447.4-526.08-816.13-152.4-309.75-349.06-614.57-412.98-953.81-29.5-231.07-108.16-304.82-93.41-599.81l-44.25-44.25c-152.41 59-860.39 29.5-1106.22 44.25-231.08 0-860.38 63.91-1042.3 34.41" style="fill:#424649"/><path d="M18750.53 10346.5c59 88.5 137.67 59 260.58 44.25-157.33 14.75-368.74 14.75-526.07-44.25-73.75-122.9-73.75-388.4 0-511.31 122.92-44.24 368.74-14.74 511.32 19.67l-63.91 14.75c122.91 122.91 216.32 260.58 78.66 457.23zm-1002.97-1740.44-44.25 142.58c-78.66-108.16-737.48-142.58-904.63-157.33l-49.16-122.91c-181.92 93.41-196.67 216.33-245.83 417.9l-368.74 1440.54-103.25 19.66c-201.58-19.66-707.98-63.91-860.39 29.5 398.24 14.75 825.98 44.25 1209.47 93.43 201.57 29.49 1032.46 73.74 1199.62 29.49-29.5-49.17-585.07-63.92-673.56-78.67-142.58 0-599.81-14.75-678.48-93.41 368.74-73.74 1106.21 122.91 1504.45 93.41l14.75-1765.02c78.67 521.15 34.42 1243.88 19.67 1779.77l1548.71 122.92c-29.5-457.23-73.75-1489.7-216.33-1887.94-103.25-324.49-196.66-412.99-521.15-535.91-245.83-78.66-565.41-172.07-830.9-216.32z" class="fil1"/><path d="m16474.19 8286.49-14.75 93.41-304.83 1209.47c-49.16 157.33-34.41 294.99-78.66 447.39l-693.23-14.75c-88.5-476.89-88.5-998.04-73.75-1474.95 860.39 93.42 1042.31 398.24 968.56-368.74-172.08 0-142.58 93.42-245.83 216.33-108.16-93.41-78.66-108.16-63.91-260.58 137.66-34.41 447.4-34.41 570.31 0zm-1150.47-953.81c260.58 0 353.99 29.5 368.74 295l-398.24-19.67zm2089.52 644.07v403.15c-78.67-78.66-49.17-78.66-186.83-93.41h-245.83l14.75-324.49V6688.62l14.75-939.05c108.17-14.75 309.74 108.16 417.91 172.07 44.25 231.08 14.75 688.32 14.75 948.9zm-771.9-181.92-658.8-14.75c-14.75-108.16-14.75-231.07-44.25-339.24-14.75-93.41-63.92-137.65-93.42-231.06-275.32-108.18-137.66-152.42-506.4-122.93l137.66-1199.62 108.17-737.48c93.41 34.41 1027.54 388.4 1150.47 491.65-14.75 201.58-44.25 757.15 14.75 894.81l-44.25 1258.62zm-1592.95 181.92c-19.66 324.49-49.16 1922.36 122.92 2104.26 137.66 63.93 73.75 93.42 275.32 108.17 137.67 14.75 231.08 0 368.74 14.75-93.41 49.17-122.91 0-231.07 19.67 137.66 14.75 383.49-49.17 491.65 29.5l-44.25 93.4 103.25-19.66 368.74-1440.54c49.16-201.57 63.91-324.49 245.83-417.9l875.13 93.41c-103.25-585.06 108.16-2409.09-59-2797.49-93.41-211.42-216.33-211.42-432.65-290.08-226.16-93.41-1381.54-644.07-1563.45-599.82-260.58 157.33-201.58 368.74-260.58 663.73-122.91 703.07-245.83 1750.29-260.58 2438.6" style="fill:#2d2e2e"/><path d="M2388.37 11909.96c63.92 339.24 260.58 644.06 412.98 953.81 172.09 368.73 280.25 521.14 526.08 816.13 442.48 29.5 245.83-771.89 245.83-1076.71 29.49-1061.97 968.54-2104.27 889.88-2595.92-44.25-245.82-167.16-231.07-324.49-353.99-152.41 181.91-304.83-63.91-491.65 290.07-29.5-122.9 34.41-14.75-44.25-122.9-585.07 14.74-816.15 122.9-1047.21 663.73-59 152.4-152.42 521.14-152.42 688.3 0 231.08 49.17 693.23-14.75 737.48" style="fill:#626566"/><path d="M19163.52 11201.98c152.42-29.5 152.42-181.91 167.17-319.57-260.58 59-290.08 0-521.16-14.75l-2763.08-108.17c-1106.22-63.91-1061.97 59-1091.47-383.49 122.91-14.75 59 14.75 137.67-29.5-339.25-93.4-2979.42 29.5-2782.75-63.91l-122.91-78.66c93.41 462.15 34.41 599.81 309.73 693.23 137.67 63.91 304.83 63.91 447.41 44.25 122.91-14.75 349.08 34.41 471.99 49.16l939.06 14.75c290.06 0 658.8 59 968.54 73.75 319.58 19.66 629.32 19.66 934.14 19.66 339.25 0 678.48 29.5 998.05 29.5l1494.62 29.5c88.5 0 122.92-14.75 211.42 14.75 108.16 29.5 78.66 29.5 201.57 29.5" class="fil1"/><path d="M13126.04 8178.32v231.08c-44.25 196.66 108.17 1165.22 167.17 1425.79l-889.9 34.42c63.92 319.57 476.91 211.4 983.31 211.4 260.58 0 939.06 19.68 1150.46-59 108.16-201.56 78.66-1612.61 93.41-1951.85l-59-152.41c-78.66 29.5-14.75-29.5-78.66 59l-181.9 339.24-1155.39 108.16c-14.75-108.16 14.75-152.41-29.5-245.83" class="fil6"/><path d="m12526.22 7750.58-14.75 14.75c137.67-555.55 216.33-1229.12 339.24-1814.19 44.25-186.82 137.67-383.49 167.17-506.4-59 275.33-339.24 1474.96-339.24 1671.61 388.4 49.18 924.3 368.74 1120.97 309.74 49.16-122.9 93.41-186.82 157.32-339.24 29.5-108.15 88.49-304.81 167.17-368.73l29.49-137.66c78.66-152.41 49.17-816.14 63.92-1042.31l-968.56-280.24c29.5-108.16 63.92 49.17-14.75-59-368.74 59-447.4 766.98-506.4 1120.97-49.16 275.33-245.83 1214.39-201.58 1430.7" style="fill:#dee0de"/><path d="M529.92 10267.84c-290.06 167.16-427.73 752.23-427.73 1076.72 181.92 29.5 811.22-34.41 1042.3-34.41 245.83-14.75 953.81 14.75 1106.22-44.25l44.25 44.25c14.75-535.91 63.91-904.65 417.9-1302.88l-1799.45 108.17c-383.49 58.99-339.24 245.81-383.49 152.4" style="fill:#646669"/><path d="M12467.23 6334.63c14.75 137.67-14.75 275.33-14.75 398.24-19.67 93.42-19.67 93.42-34.42 172.08-29.5 137.66-29.5 108.16 34.42 181.9 29.5-339.24 122.91-722.72 181.91-1042.29 44.25-294.99 78.66-693.23 324.49-894.81 196.66-152.41 737.48-167.16 1012.81-196.66 290.06-29.49 766.97-167.17 1012.79-29.49 137.67 88.49 122.92 108.15 44.25 471.98l-226.16 1401.21c0-108.17 137.66-693.23 167.16-860.4 59-324.49 93.42-644.06 122.92-968.55 78.66 875.14-275.33 1656.87-309.74 2394.34l142.57-565.39c14.75 181.91-93.41 953.79-63.91 1504.45 29.5-167.17-44.25-368.74 108.16-412.99 59 108.16 44.25 811.23 29.5 998.05-29.5-157.32-29.5-771.89 49.17-909.55 14.75-688.31 137.66-1735.53 260.57-2438.6 59-294.99 0-506.4 260.58-663.73 181.91-44.25 1337.3 506.41 1563.45 599.82 216.33 78.66 339.24 78.66 432.65 290.08 167.17 388.4-44.25 2212.43 59 2797.49l122.92 44.25v-688.31c-122.92-521.15 186.82-2010.86-152.42-2364.85-152.41-157.32-1474.95-693.23-1765.02-786.64-570.32-167.15-1691.29 34.41-2305.85 108.16-334.32 49.18-688.31 63.92-845.64 432.66-73.75 196.66-226.16 825.98-211.41 1027.55" style="fill:#737679"/><path d="M9930.31 8099.66c-14.75 324.49 904.64 2718.83 781.73 3013.82l-137.67 14.75c-226.16-201.57-226.16-752.23-349.07-1027.54v73.74l122.91 678.48c-368.74 59-983.31 152.41-1337.3 73.75 88.5 275.32 181.92 216.32 457.24 231.07 201.58 0 417.91 14.75 634.23 14.75 211.42 14.75 398.24 63.92 594.91 78.67 231.07 0 462.15 14.75 678.48 14.75h216.32c-49.17-78.67-63.92-29.5 44.24-78.67-167.15-29.5-137.65-73.75-186.82-245.82l-260.57-1027.55h-73.75l-14.75 78.66-186.83 14.75-59 14.74-63.91 44.25 14.75 417.92c-59-14.75-14.75 14.74-44.25-49.18-63.91-122.91-324.49-1150.46-398.24-1302.87l-34.41-108.16c-88.5-216.33-290.08-1135.72-427.74-1229.14 44.25 137.67 44.25 152.42 29.5 304.83" class="fil1"/><path d="m10731.7 11142.98-19.66-78.66-29.51 34.41v-34.41l14.75-14.75v-14.75l-14.75-59v-63.91l-14.74-73.75-14.76-78.67-14.75-93.41-29.5-93.41-63.91-211.42-59-231.06-78.66-245.83-78.67-260.58-73.74-245.82-78.67-245.83-73.75-245.83-78.66-216.32-44.25-186.83-49.16-167.16-14.76-78.67-14.75-59v-93.41l59 14.75v34.41l19.67 44.25 14.75 44.25 14.75 78.67 29.5 152.41 63.91 201.58 59 216.32 78.66 226.17 73.75 245.82 78.67 265.49 78.66 245.83 73.75 245.83 78.67 245.81 58.99 211.42 14.75 93.41 14.76 93.41 34.41 93.42v59l14.75 78.66v122.91l-14.75 29.5zm14.75-14.75v14.75h-14.75zm-172.08-29.5 137.67-34.41 19.66 78.66-157.33 14.75h-14.75zm0 59h-14.75zm-319.57-1057.04h-78.67l78.67-19.68 14.74 63.93 29.51 58.99 14.74 63.91 14.75 78.66 34.42 137.68 29.5 152.4 14.75 78.66 29.5 59 14.75 78.67 34.41 59v29.5l14.75 19.66 14.75 29.5 14.75 29.5 14.75 14.75 14.75 29.5 14.75 14.75 34.41 19.66-49.16 59-29.5-29.5-14.75-14.75-29.5-34.41-14.75-29.5-19.66-14.75-14.75-29.5-14.75-29.5-14.75-49.16-14.75-59-29.5-78.67-14.75-59-19.67-78.66-29.49-152.41-29.51-137.67-29.5-78.66-14.75-58.99-19.66-63.91-29.5-44.25zm-78.67 0v-157.34l78.67 137.66zm0 73.74v-73.74h78.67v73.74zm122.92 693.23-122.92-693.23 78.67-14.74 122.91 693.22-29.5 44.25zm78.66-14.75v29.5l-29.5 14.75zm-1337.3 59-78.66 14.75 49.16-44.25 73.75 14.75 63.92 14.75h427.73l93.42-14.75 167.16-14.75 186.83-14.75 167.16-29.5 137.66-19.67 19.67 78.67-157.33 14.75-167.16 14.75-167.17 34.41-186.82 14.75h-93.42l-88.5 14.75h-265.49l-73.74-14.75h-78.67l-73.75-14.75zm-78.66 14.75-14.75-59 63.91 14.75zm506.4 186.82-14.75 73.75h-260.57l-29.51-14.75-29.5-14.75-34.41-14.75-29.5-14.75-14.75-29.5-29.5-34.41-14.75-44.25-14.75-29.5-34.41-63.91 78.66-14.75 14.75 49.16 14.75 29.5 14.75 44.25 14.75 14.75 19.66 14.75 29.51 14.75 14.74 19.66 14.75 14.75zm634.23 29.5v78.67h-172.07l-73.76-19.67h-231.07l-78.67-14.75h-93.41l14.75-73.75 78.66 14.75h231.08l78.66 14.75zm594.9 59v78.67h-73.74l-78.67-14.75h-73.75l-78.66-14.75-63.92-14.75h-73.74l-78.67-14.75h-73.75v-78.67h73.75l78.67 14.75h73.74l78.67 14.75 78.66 14.75h73.75l63.92 14.75zm678.48 34.42v59h-339.23l-78.67-14.75h-260.58v-78.67h93.42l78.66 19.67h427.73l93.41 14.75zm216.33 59h-216.33v-59l216.33-14.75 29.49 29.5zm29.49-44.25 14.75 44.25h-44.24zm0-29.5 14.75-63.92 14.75 63.92-58.99 29.5h-19.67l19.67-49.17 29.49 49.17-63.91 29.5-29.5-29.5v-63.92l29.5-14.75 63.91-14.75zm14.75-63.92 122.91 14.75-108.16 49.17zm-216.33-196.66 78.68-34.41 14.75 108.16 14.74 78.66h14.75v14.75h14.75l14.75 14.75h34.42l29.49 14.75-14.75 63.92h-49.16l-29.5-19.67-14.75-14.75h-29.49l-14.75-14.75v-29.5l-14.75-14.75-19.67-78.66zm78.68-34.41v14.75zm-275.33-1027.55 275.33 1027.55-78.68 34.41-275.31-1047.21 44.25-29.5zm-34.41-14.75h14.74l19.67 14.75zm-73.75 0h73.75v58.99h-73.75l-34.41-44.24zm-34.41 14.75v-14.75h34.41zm-29.52 93.41 29.52-93.41 63.91 14.75-14.75 93.41-29.5 14.74zm78.68 14.75v14.74h-29.5zm-216.33-29.5 167.17-19.67 19.66 63.91-186.83 29.5zm-59 0h59v73.74h-44.25l-34.41-58.99zm-19.66 14.75 19.66-14.75zm-59 44.24 59-44.24 49.16 44.24-78.66 63.93-44.25-34.43zm-14.75 29.5v-14.75l14.75-14.75zm14.75 417.92-14.75-417.92h59l34.41 417.92-49.16 29.49zm78.66 0v44.24l-49.16-14.75zm-122.91-34.43 59-44.25 14.75 44.25-14.75-14.75 29.5 14.75-14.75 63.92h-29.5l-29.5-14.75-14.75-14.74zm-417.91-1302.87 78.67-14.75v-14.75l14.75 44.25 14.75 59 29.5 63.91 34.41 93.42 59 181.91 49.16 216.33 59 216.32 59.01 196.66 19.66 78.66 29.5 59 14.75 63.91 14.75 14.75-59 44.25-19.66-44.25-29.51-44.25-14.74-78.66-29.51-78.66-44.25-181.92-63.91-216.31-59-216.33-63.91-196.66-14.75-78.67-29.5-73.75-14.75-49.16-19.67-44.25zm14.75 0h-14.75zm49.17-122.91 14.75 108.16-78.67 14.75-14.74-108.16 63.91-29.5zm-14.75-14.75 14.75 14.75zm-432.65-1229.14-59.01 29.5 59.01-44.25 14.74 14.75 14.75 14.75 19.67 29.5 14.75 29.5 29.5 63.92 29.5 59 14.75 93.41 34.41 78.66 29.5 108.17 29.5 88.5 63.91 201.57 59 201.58 14.76 73.75 29.49 78.66 19.67 59 14.75 49.17-63.91 29.5-14.76-44.25-29.49-78.67-14.76-78.66-34.41-73.75-44.25-186.83-59-196.66-34.41-108.16-29.5-93.42-29.5-93.41-29.5-73.75-34.42-78.66-14.74-44.25-14.76-34.42-14.75-14.75h-14.74v-14.75zm-59.01 29.5-34.41-108.16 93.42 63.91zm88.5 290.08-59-14.75v-196.66l-14.74-34.42-14.76-44.25 59.01-29.5 29.49 44.25v49.17l19.67 29.5v152.41zm-59-14.75" class="fil2"/><path d="M12452.47 7086.85c-108.16 491.66-324.49 2335.36-231.07 2782.76 44.25 58.99 108.16 275.33 398.24 319.57l1411.03 14.75c294.99 0 432.67 34.42 614.57-58.99-14.75-167.17 34.41-260.58 49.16-447.42V8453.65c-14.75-290.08 14.75-825.97 88.5-1091.47 34.42-737.47 388.41-1519.2 309.74-2394.34-29.5 324.49-63.91 644.06-122.91 968.55-29.5 167.17-167.16 752.23-167.16 860.4-93.42 339.24-186.83 919.38-172.08 1273.37-14.75 339.24 14.75 1750.29-93.41 1951.85-211.42 78.68-889.89 59-1150.46 59-506.41 0-919.4 108.17-983.31-211.4-44.25-245.83-44.25-491.65-29.5-737.48 0-78.66 44.25-678.48 29.5-678.48 14.75-137.66 29.5-383.49 93.41-476.9-14.75-103.25-29.5-122.92 29.5-226.17-44.25-216.31 152.42-1155.37 201.58-1430.7 59-353.99 137.66-1061.97 506.4-1120.97l216.33-63.91c260.58-14.75 565.39-103.25 825.97-73.75 108.16-63.91 447.4-93.41 599.82-78.66l108.16 29.5v-88.49c-245.83-137.68-722.73 0-1012.8 29.49-275.32 29.5-816.14 44.25-1012.8 196.66-245.83 201.58-280.24 599.82-324.49 894.81-59 319.57-152.42 703.05-181.92 1042.29" style="fill:#2a2c2c"/><path d="M12005.07 7873.5c14.75-93.42-78.66-265.49-122.91-353.98-29.5-78.68-44.24-108.18-78.67-186.84-73.75-137.65-59-58.99-29.5-181.9-14.75-201.58-535.89-1229.14-673.55-1445.46-122.92-216.33-280.24-447.41-432.66-629.32-78.66-93.41-427.74-491.64-521.15-521.14-324.49-186.84-614.57-403.17-953.81-599.82L7240.97 2848.82c-260.58-108.16-752.23-398.24-948.89-570.32L4050.15 1019.88l-63.92 14.75c216.33 417.9 644.07 462.15 1106.22 752.22 167.17 108.16 398.23 245.83 570.32 339.24l614.57 339.24c368.73 231.08 781.72 442.49 1179.96 658.82l2350.09 1366.78c398.24 309.74 599.82 398.24 953.81 924.31 412.99 580.15 934.13 1996.1 1243.87 2458.26" class="fil1"/><path d="m11852.66 7534.27 73.75-29.5 34.41 73.74 44.25 108.16 14.75 44.25 14.75 49.16v44.25l14.75 29.5-14.75 19.67-59-19.67v-29.5l-14.75-29.5-19.66-29.5-14.75-49.16-29.5-108.16zm-78.66-186.84 63.92-29.5 14.74 44.25 29.5 49.16 14.75 44.25 29.5 49.18-73.75 29.5-14.74-49.18-19.67-44.25-29.51-44.24zm-29.51-196.65 59-14.75v14.75l-14.75 59v29.49l14.75 34.42 34.43 44.24-63.92 29.5-29.51-44.24-14.73-14.75-14.77-29.5v-34.42l14.77-29.49 14.73-59zm59-14.75v14.75zm-737.48-1415.96 63.93-29.5 73.74 108.16 93.41 181.91 108.18 216.33 108.16 216.33 58.99 122.91 49.16 108.16 44.25 103.24 49.16 108.18 44.25 93.41 14.76 78.66 14.74 29.5 14.75 29.49v49.18l-59 14.75v-14.75l-14.73-34.43v-29.49l-14.77-29.5-34.41-78.66-29.5-73.75-44.24-108.16-49.17-108.17-58.99-108.16-49.17-108.16-122.92-231.08-103.24-216.33-93.41-167.16zm-427.73-614.57 59-59 63.92 73.75 59 78.66 49.16 73.75 59 78.67 49.16 93.41 59.01 73.75 44.25 78.66 49.16 93.42-63.93 29.5-44.24-78.67-44.25-88.5-63.91-78.66-44.25-78.66-63.91-73.75-44.25-78.67-63.92-73.75zm-506.4-521.14 44.25-63.93h-14.75l29.5 19.68 34.41 14.75 29.51 29.5 29.49 29.49 78.67 63.92 73.75 88.49 78.66 78.66 78.66 93.42 59 59 44.25 49.16-59 59-29.5-59-78.66-63.91-59-73.74-93.41-93.43-78.66-78.66-59.01-73.74-49.16-34.42-14.75-14.75-29.5-14.74zm14.75 14.75-14.75-14.75zm-983.31-614.57 44.25-59 122.92 73.75 122.91 78.66 122.91 73.74 108.17 78.68 122.91 78.66 122.92 73.74 122.91 78.66 122.91 59-44.25 63.93-122.91-63.93-122.91-73.74-108.17-78.67-122.91-73.74-122.92-78.66-122.91-78.68-108.16-73.74zM7260.64 2819.32l1946.93 1106.22-44.25 59-1951.85-1106.22zM6277.34 2308l29.49-59 14.75 14.75 29.5 29.5 49.16 34.42 44.25 29.5 59 44.25 122.91 78.66 142.58 73.75 122.92 78.66 137.66 78.67 122.91 59 108.17 49.16-34.42 73.75-108.16-59-122.92-63.91-137.66-73.75-137.66-78.67-122.91-78.66-122.92-73.75-59-49.16-63.91-29.5-44.25-44.25zm29.49-59 14.75 14.75zM4064.9 990.38 6306.83 2249l-29.49 59-2246.86-1243.87v-73.75zm-34.42 0h34.42zm-44.24 0h44.24l19.67 73.75h-49.17l-44.25-14.75zm-29.51 59-14.74-44.25 44.25-14.75zm1165.23 707.97-44.25 63.92-93.42-49.17-78.66-44.24-73.75-49.17-93.42-44.24-152.41-78.68-152.41-73.74-63.92-29.5-73.74-49.16-34.42-14.75-29.5-29.5-29.5-14.75-29.5-34.41-34.41-29.5-29.5-29.5-29.5-29.5-29.5-34.43-19.67-29.49-29.5-29.5-14.74-44.25-29.51-34.41 73.75-29.5 19.67 29.5 14.75 34.41 29.5 29.5 14.75 29.5 29.5 29.5 14.75 34.42 34.41 29.5 29.5 14.75 29.5 29.5 29.5 14.75 34.42 34.41 29.5 14.75 58.99 44.25 63.92 29.5 152.41 78.66 152.41 78.67 93.42 44.25 78.66 44.24 88.5 49.17zm570.31 339.24-49.17 59-58.99-29.5-78.68-44.25-73.74-49.16-78.66-29.5-59-44.24-78.66-49.18-78.67-44.25-58.99-44.24 44.25-63.92 63.91 44.25 59 49.16 78.66 44.25 73.74 29.5 78.67 49.18 63.92 44.24 73.75 49.17zm565.39 398.24-614.56-339.24 49.17-59 599.81 334.33zm1214.39 599.82-44.25 59-137.66-73.75-152.42-78.67-142.58-93.41-152.41-73.75-152.41-78.66-152.42-93.42-137.66-88.5-142.58-78.66 34.42-63.91 137.66 78.66 152.41 93.41 137.67 73.75 152.41 93.42 157.33 78.66 152.41 93.41 137.66 73.75zm2305.84 1425.78L7427.8 3153.65l44.25-59 2350.09 1366.78zm1012.81 860.4-59 49.16-63.91-93.41-59.01-78.67-63.91-73.75-59-63.91-49.16-59-59-63.91-49.17-44.25-44.25-44.24-59-49.18-49.16-44.25-59-49.16-63.91-44.25-122.91-93.41-152.42-108.17 44.25-59 137.66 108.18 142.58 93.41 59 44.24 44.25 44.25 63.91 49.16 59 44.25 49.17 44.25 59 63.92 49.16 59 59 63.91 63.91 59 59.01 78.66 63.91 78.67zm1184.87 2473 59 19.67-59 14.75-34.41-49.17-29.5-44.25-29.5-63.91-29.5-59-78.66-137.65-78.67-137.67-59-172.08-93.41-167.16-73.74-167.16-78.68-186.83-93.41-181.91-73.74-186.83-78.66-167.16-93.43-172.08-73.74-167.16-93.41-137.66-29.5-78.67-49.16-59-29.5-63.91-44.25-59 59-49.16 44.25 63.91 34.41 59 44.25 78.66 44.25 59 78.67 157.33 78.66 167.16 88.49 167.17 78.67 172.07 93.41 181.92 73.75 186.82 78.66 181.92 93.41 172.07 73.75 167.17 78.67 167.15 63.92 142.59 73.74 137.65 29.5 59 34.41 49.16 29.5 59 29.5 44.25zm59 19.67-14.75 88.5-44.25-73.75z" class="fil2"/><path d="M15844.87 7209.78c122.92-73.75 368.74-59 491.66 0l93.41 540.8c44.25 14.75 88.5 14.75 108.16 14.75 59 0 59 0 103.24 29.5h63.93l44.25-1258.62c-196.67-78.66-442.49-201.58-658.82-280.24-181.91-73.75-462.15-196.66-629.32-275.33l14.75-93.41-137.66 1199.62c368.74-29.49 231.08 14.75 506.4 122.93" style="fill:#7a7b7d"/><path d="m16459.44 8379.9-108.16 29.5c0-152.41-29.5-152.41 63.91-201.58 73.75 29.5 29.5-44.25 59 78.67l63.91-152.42c-122.91-34.41-432.65-34.41-570.31 0-14.75 152.42-44.25 167.17 63.91 260.58 103.25-122.91 73.75-216.33 245.83-216.33 73.75 766.98-108.17 462.16-968.56 368.74-14.75 476.91-14.75 998.06 73.75 1474.95l693.23 14.75c44.25-152.4 29.5-290.06 78.66-447.39z" style="fill:#4b4e51"/><path d="M13155.54 13847.07c-44.25 319.57 4026.62 93.41 4469.11 59 757.14-59 1430.71 137.66 1617.54-752.23 59-319.57 88.5-722.72-49.17-1042.3-93.41-245.83-319.57-585.07-629.31-555.57-447.41-29.5-860.4-14.75-1307.8-44.25-260.58-14.75-1057.05-78.66-1224.21 93.42 73.75 29.5 137.66 14.75 260.58 14.75 304.82 14.75 737.48-14.75 963.63 29.5 353.99 78.66 142.59-78.67 540.82 29.5 167.16 49.16 152.41-29.5 231.07-29.5 88.5 0 152.42 14.75 260.58 14.75 122.91-14.75 412.99 29.5 521.15 78.66 231.08 122.91 245.83 275.33 275.33 353.99 78.66 231.08 93.41 290.08 122.91 535.9 49.17 462.16-152.41 644.06-211.41 801.39-34.41 103.25 0 137.66-108.16 211.41-186.83 108.16-1597.88 172.08-1828.94 172.08-309.74 14.75-889.9 14.75-1214.39 59-752.23 108.16-644.06 29.5-1214.38 0l63.91-29.5c-462.15-108.17-998.04 29.5-1430.7-63.92l-152.41-44.25c59 29.5 29.5-14.75 44.25 108.17" class="fil13"/><path d="M19330.69 10882.41v-186.83l-703.07-44.25c-245.82-29.5-511.31-44.25-757.14-59l122.91-19.66c-152.41-29.5-245.82-14.75-368.74-73.75h-44.25c-167.16 44.25-998.05 0-1199.62-29.49-383.49-49.18-811.23-78.68-1209.47-93.43 152.41-93.41 658.82-49.16 860.39-29.5l-968.56-34.41-2399.25-29.5h-353.99c-196.67 93.41 2443.5-29.49 2782.75 63.91-78.67 44.25-14.75 14.75-137.67 29.5 29.5 442.49-14.75 319.58 1091.47 383.49l2763.09 108.17c231.07 14.75 260.57 73.75 521.15 14.75M2678.45 5857.73l-122.93 2060.02-14.74 29.5 417.91 49.16c73.74-142.58 58.99-280.24 58.99-432.65l63.92-4483.86-172.09 1425.78c-14.75 245.83-88.49 1214.39-231.06 1352.05" class="fil1"/><path d="m2526.03 7917.75 108.17-2060.02h78.66l-122.91 2060.02v14.75zm63.92 0v14.75zm-78.67 29.5 14.75-44.25 63.92 29.5v29.5l-49.17 34.41zm29.5 49.16h-44.25l14.75-49.16zm417.91 29.5-417.91-29.5 14.74-78.66 417.92 29.5 29.5 63.91zm44.25-14.75-14.75 14.75h-29.5zm-14.75-462.15 58.99 14.75v275.32l-14.75 49.17v29.5l-14.75 29.5-14.74 29.5v34.41l-78.68-34.41 19.68-29.5 14.75-29.5v-44.25l14.75-49.17v-44.25l14.75-49.16zm137.65-4469.11-78.66 4483.86-58.99-14.75 58.99-4469.11zm-78.66 0 78.66-693.23v693.23zm-167.17 1425.78 167.17-1425.78h78.66l-181.9 1425.78zm-167.15 1352.05h-78.66l14.75-29.5h14.75v-14.75l14.75-29.5 19.66-34.41 14.75-29.5v-29.5l14.75-29.5 14.75-49.17 14.75-93.41 14.75-88.5 14.74-108.16 14.75-108.17 34.42-216.32 14.75-196.67 14.75-172.07 14.74-122.92h63.93v122.92l-19.68 172.07-29.5 211.42-14.75 216.32-14.74 108.17-14.75 108.16-14.75 93.41-34.42 88.5v49.17l-14.75 44.25-14.74 29.5-14.75 34.41-14.75 29.5-14.75 29.5zl-14.75 29.5zm-78.66 0v-14.75l14.75-14.75z" class="fil2"/><path d="M14876.32 4982.59c122.91 108.16 78.66 122.91 93.41 245.82l-29.5 260.58-34.41 137.66-167.17 983.31-29.5 186.83c-49.16-93.42 14.75-63.92-137.66-78.67l-63.91 707.97-44.24 201.59-29.5 122.9c-172.09 14.75-476.91-93.41-570.32-216.31l-78.66-29.5v73.74l34.41 231.07-63.91 14.75c-398.24-44.25-585.07-59-629.32 353.99 44.25 93.42 14.75 137.67 29.5 245.83l1155.38-108.16 181.91-339.24c63.91-88.5 0-29.5 78.66-59l59 152.41c-14.75-353.99 78.66-934.13 172.08-1273.37l226.16-1401.21c78.66-363.83 93.41-383.49-44.25-471.98v88.49z" class="fil14"/><path d="m2417.87 9668.03-196.66-14.75-368.74 29.5c-78.66 63.92-93.41 49.17-216.33 78.67-275.32 0-398.24 14.75-644.06 152.41-152.42 78.66-383.48 216.33-462.16 353.98 44.25 93.41 0-93.41 383.49-152.4l1799.45-108.17c-353.99 398.23-403.15 766.97-417.9 1302.88-14.75 294.99 63.91 368.74 93.41 599.81 63.92-44.25 14.75-506.4 14.75-737.48 0-167.16 93.42-535.9 152.42-688.3 231.06-540.83 462.14-648.99 1047.21-663.73 78.66 108.15 14.75 0 44.25 122.9 186.82-353.98 339.24-108.16 491.65-290.07h-442.49c-216.33 14.75-462.14-14.75-693.22 0-181.91 0-412.99 78.67-585.07 14.75" class="fil15"/><path d="m12526.22 8453.65-93.41 63.91-29.5-63.91c14.75 0-29.5 599.82-29.5 678.48-14.75 245.83-14.75 491.65 29.5 737.48l889.89-34.42c-59-260.57-211.41-1229.13-167.16-1425.79-108.16 59-476.9 73.75-599.82 44.25" style="fill:#666b71"/><path d="m15476.13 5887.23-14.75 93.41c167.17 78.67 447.41 201.58 629.32 275.33 216.33 78.66 462.15 201.58 658.82 280.24-59-137.66-29.5-693.23-14.75-894.81-122.93-103.25-1057.06-457.24-1150.47-491.65z" style="fill:#bcbec2"/><path d="M12526.22 7750.58c-59 103.25-44.25 122.92-29.5 226.17v93.41l44.25-181.91c93.42 152.41 63.92 137.66 49.17 304.82-34.42 152.42 44.25 186.83-108.17 231.08l44.25 29.5c122.92 29.5 491.66 14.75 599.82-44.25v-231.08c44.25-412.99 231.08-398.24 629.32-353.99-44.25-122.91-44.25-152.41 29.5-245.82v-73.74l34.41-19.68 29.5-59h-49.16c-196.67 59-732.57-260.56-1120.97-309.74 0-196.65 280.24-1396.28 339.24-1671.61-29.5 122.91-122.92 319.58-167.17 506.4-122.91 585.07-201.57 1258.64-339.24 1814.19z" class="fil18"/><path d="M9010.91 10926.66c353.99 78.66 968.56-14.75 1337.3-73.75l-122.92-678.48-1199.63 63.92 29.5-108.16c-137.66 122.91-122.91 629.3-44.25 796.47" class="fil1"/><path d="m10299.05 10867.66 78.66-14.75-29.5 44.25-157.33 14.75-167.16 14.75-167.16 34.41-186.83 14.75h-93.41l-88.5 14.75h-265.49l-73.75-14.75h-78.67l-73.75-14.75 14.75-78.66 73.75 14.75 63.92 14.75h427.74l93.41-14.75 167.16-14.75 186.83-14.75 167.16-29.5 137.67-19.67zm78.66-14.75v29.5l-29.5 14.75zm-122.91-693.22 122.91 693.22-78.66 14.75-122.92-693.23 29.5-44.24zm-49.17-29.5h34.42l14.75 29.5zm-1179.97 73.74 1179.97-73.74 19.67 73.74-1199.64 63.91-29.5-29.49zm0 63.91-49.16 14.75 19.66-44.24zm59-122.9-14.75 108.16-73.75-14.75 29.5-108.16v-14.75zm-59-29.5 93.43-78.68-34.43 108.18zm-14.75 766.97-14.75 78.66-19.66-19.66-14.75-44.25-14.75-44.25-14.75-49.17v-59l-14.75-49.16v-245.83l14.75-59v-63.91l14.75-59 14.75-44.24 14.75-49.17 19.66-14.74v-14.75l14.75-14.75 14.75-14.75 44.25 44.25v14.74h-14.75v14.75l-14.75 14.75-14.75 49.17-14.75 44.24v49.16l-14.75 44.25v353.99l14.75 44.25v49.17l14.75 44.25 14.75 29.5zm-14.75 78.66h-19.66v-19.66z" class="fil2"/><path d="M9546.81 7932.5v29.5c78.67 417.9 614.57 1661.78 599.82 1951.86l78.66 186.83c122.92 275.31 122.92 825.97 349.08 1027.54l137.66-14.75c122.92-294.99-796.48-2689.33-781.73-3013.82-108.16-137.66-108.16-245.83-137.66-304.83-201.58 29.5-122.91 59-245.83 137.67" class="fil1"/><path d="M14782.91 7362.18c-73.75 265.5-103.24 801.39-88.49 1091.47V9928.6c108.15-152.4 58.99-811.22 73.74-1042.3 0-353.99 34.41-707.98 49.16-1047.22-49.16 383.49-34.41 2119.02 44.25 2458.26-368.74 14.75-737.47 0-1106.21 0-319.58 0-811.23-29.5-1091.47-14.75l2399.26 29.5c44.25-44.25-14.75-14.75 73.75-58.99 14.75 0 63.91-14.75 78.66-14.75l-44.25-157.34c-172.08-181.9-142.58-1779.77-122.91-2104.26-78.67 137.66-78.67 752.23-49.17 909.55 14.75-186.82 29.5-889.89-29.5-998.05-152.41 44.25-78.66 245.82-108.16 412.99-29.5-550.66 78.66-1322.54 63.91-1504.45z" class="fil19"/><path d="m11188.94 9913.86 260.56 1027.55c49.18 172.07 19.68 216.32 186.83 245.82-108.16 49.17-93.41 0-44.24 78.67h334.32l-137.67-78.67c-29.5-245.82-122.91-491.65-181.9-717.8-78.67-245.83-122.91-476.91-186.84-722.73l-368.74-1401.21-245.81 34.41c-14.75 103.25 353.99 1489.71 383.49 1533.96" class="fil1"/><path d="M3155.34 9053.47h-196.65l-491.65 14.75c-78.67 78.66-108.17 93.41-122.92 231.07l73.75 368.74c172.08 63.92 403.16-14.75 585.07-14.75 231.08-14.75 476.89 14.75 693.22 0-14.75-231.07 73.75-383.49-49.16-570.31l-73.74-59c-260.58-122.92-201.59 0-417.92 29.5" style="fill:#4d5152"/><path d="m3081.6 3079.9-63.92 4483.86c14.75 167.16-29.49 368.74 0 521.15l137.66 14.75c-44.25-796.47 122.92-5452.42-44.25-5742.49z" class="fil1"/><path d="m2988.19 7549.01 58.99-4469.11h78.66l-78.66 4483.86h-58.99zm0 14.75v-14.75zm29.49 491.65v78.66l-29.49-34.41-14.75-29.5v-304.83l14.75-78.66v-122.91l58.99-14.75 19.67 78.67-19.67 58.99v398.24zm0 78.66h-29.49v-34.41zm137.66 14.75-137.66-14.75v-78.66l152.41 14.75 34.43 29.5zm49.18-49.16v49.16h-49.18zm-49.18-5742.49h-73.74l58.99-14.75zl14.75 29.5v63.91l19.68 88.5 14.75 108.16v122.92l14.75 152.41v2615.58l-14.75 471.99v462.16l-14.75 447.4v1106.21l14.75 73.75-78.68 14.75v-88.5l-14.75-108.16v-614.56l14.75-383.49v-909.56l14.75-471.99v-983.29l14.75-462.16v-432.65l-14.75-398.24v-339.24l-14.75-137.66v-137.67l-14.75-93.41v-88.5l-14.74-34.41v-44.25l-14.75-14.75zm-73.74 0v-122.92l58.99 108.17zm-34.42 722.73 34.42-722.73h73.74l-29.5 722.73zm0 0" class="fil2"/><path d="M6292.08 2278.5c196.66 172.08 688.31 462.16 948.89 570.32l1951.85 1106.22c339.24 196.65 629.32 412.98 953.81 599.82-78.66-216.33-816.14-894.81-1047.22-998.06 49.16 103.25 34.41 73.75 19.66 196.66l-157.32-93.41c-167.17-29.5-457.23-260.58-644.06-334.33-181.91-78.66-462.15-260.57-644.07-368.74-201.57-108.16-398.24-231.07-614.56-339.24C6891.89 2509.58 6567.4 2249 6380.58 2308l-14.75-44.25-44.25-14.75z" class="fil1"/><path d="m7260.64 2819.32-49.17 59 14.75 14.75-108.16-59-122.92-63.91-137.66-73.75-137.66-78.67-122.91-78.66-122.92-73.75-59-49.16-63.91-29.5-44.25-44.25-29.49-34.42 44.24-44.25 29.5 29.5 49.16 34.42 44.25 29.5 59 44.25 122.91 78.66 142.58 73.75 122.92 78.66 137.66 78.67 122.91 59zm1902.68 1165.22L7211.47 2878.32l49.17-59 1946.93 1106.22zm953.81 585.07 73.75-14.75-59 29.5-122.91-63.93-122.91-73.74-108.17-78.67-122.91-73.74-122.92-78.66-122.91-78.68-108.16-73.74-137.67-78.66 44.25-59 122.92 73.75 122.91 78.66 122.91 73.74 108.17 78.68 122.91 78.66 122.92 73.74 122.91 78.66 122.91 59zm73.75-14.75 34.41 88.49-93.41-58.99zM9133.82 3537.14l-63.91 34.41 49.16-49.16zl29.5 19.66 29.51 14.75 29.49 29.5 78.67 44.25 78.66 49.16 73.75 73.75 78.66 63.92 93.42 73.75 73.75 78.66 93.41 78.66 78.66 88.49 73.75 78.68 63.92 78.66 59 58.99 49.16 63.92 29.5 29.49 14.75 29.5 14.75 29.5 14.75 34.43-73.75 14.75v-14.75l-14.75-14.75-19.66-34.43-14.75-29.5-59-58.99-49.17-63.91-73.74-78.67-78.67-73.74-73.75-78.67-78.66-73.75-78.67-78.66-88.5-78.66-78.66-73.75-78.66-63.92-73.75-59-63.91-49.16-29.51-14.75-29.5-14.75-34.41-14.75h-14.75zm-63.91 34.41-44.25-78.66 93.41 29.5zm14.75 211.41 49.16-59-63.91 29.5 14.75-73.75 14.75-34.41-14.75-14.75v-14.75l-14.75-44.25 63.91-34.41 14.76 49.16 14.74 14.75v29.5l14.75 14.75-14.75 49.16-14.74 73.75zm63.92-14.75-14.76 49.17-49.16-34.42zm-172.08-137.66 157.32 93.41-49.16 59-152.41-88.5 29.5-78.66zm-14.75-14.75 14.75 14.75zm-658.81-260.58 14.75-63.91 44.24 19.66 49.18 14.75 29.5 29.5 44.25 14.75 93.4 63.92 78.67 44.25 93.41 59 73.75 34.41 49.17 14.75 29.5 14.75 29.49 14.75h29.5l-14.75 78.66h-29.5l-44.24-14.75-34.43-19.66-44.25-14.75-78.66-44.25-88.49-63.91-93.41-44.25-78.68-59-44.23-19.67-49.18-29.5-29.49-14.75zm-644.06-353.99 29.49-78.66 78.67 49.16 73.75 44.25 78.66 63.92 93.41 44.25 73.75 44.25 93.42 49.16 78.66 44.25 59 29.5-14.75 63.91-78.66-29.5-73.75-49.16-93.42-44.25-78.66-44.25-88.5-49.16-78.66-59-93.42-49.17zm-614.57-353.99 29.5-59 78.66 29.5 73.75 44.25 78.67 49.17 78.66 44.25 73.75 44.25 78.66 49.16 73.75 44.25 78.66 29.5-29.49 78.66-78.67-44.25-73.75-49.16-78.66-44.25-78.67-44.25-73.75-49.16-78.66-44.25-78.66-49.17zm-693.23-319.57 63.91-34.42-49.16-14.75 34.41-14.75h103.25l49.17 14.75 44.25 14.75 49.16 34.42 44.25 14.75 59 29.5 93.41 59 78.67 49.16 93.41 59 59 49.16-29.5 59-78.66-44.25-73.75-63.91-93.42-44.25-93.41-63.91-44.25-29.5-49.17-14.75-44.24-14.75-29.51-14.75-49.16-14.75h-88.5zm49.16 14.75-34.41 14.75-14.75-29.5zm0-93.42 14.75 44.25-63.91 34.42-14.75-49.17 29.5-44.25zm-34.41-14.75h14.75l19.66 14.75zm-44.25-14.75 44.25 14.75-14.75 59h-44.25l-14.75-59zm-29.5 14.75 14.75-14.75h14.75zm-34.42 29.5 34.42-29.5 59 44.25-29.5 29.5h-44.24zm19.68 44.25-34.43-14.75 14.75-29.5z" class="fil2"/><path d="m13450.53 5135-216.32 63.91c78.66 108.17 44.25-49.16 14.75 59l968.55 280.24c-14.75 226.17 14.74 889.9-63.92 1042.31h122.91l14.75-1027.56 555.57 152.42 59-78.67 34.41-137.66c-122.91-167.16-752.22-231.08-585.05-383.49-186.84 0-260.58 0-447.42 29.5-181.9 34.41-383.48 78.66-457.23 0" style="fill:#b2b4b5"/><path d="M6365.83 2017.93c122.91 93.41 49.16 63.91 122.91 137.66l1155.38 693.23c260.58 196.66 1165.21 614.57 1317.63 811.23l157.32 93.41c14.75-122.91 29.5-93.41-19.66-196.66-137.66-157.33-2561.51-1568.37-2763.08-1612.61z" class="fil1"/><path d="m14276.5 6580.46 462.15 29.5 167.17-983.31-59 78.67-555.57-152.42z" class="fil22"/><path d="m16995.34 7962 417.9 14.75 29.5-1106.21c-122.92-29.5-353.99-88.5-447.4-181.92z" style="fill:#757a7c"/><path d="M14694.4 8453.65v1243.87c-14.75 186.84-63.91 280.25-49.16 447.42-181.9 93.41-319.58 58.99-614.57 58.99l-1411.03-14.75c-290.08-44.24-353.99-260.58-398.24-319.57-63.92 44.25-34.42-63.91-78.67 108.16-137.66-585.06 78.67-1337.29 14.75-1907.61l-93.41 1396.3c0 324.49-44.25 447.4 122.91 737.47l122.92 78.66h353.99c280.24-14.75 771.89 14.75 1091.47 14.75 368.74 0 737.47 14.75 1106.21 0-78.67-339.24-93.42-2074.77-44.25-2458.26-14.75 339.24-49.17 693.23-49.17 1047.22-14.75 231.08 34.42 889.9-73.75 1042.3z" class="fil24"/><path d="m13312.87 11541.22 1578.2-14.75-137.67 78.67c-196.66 44.25-59-34.42-122.91 88.5l-1597.86 19.66-44.25 137.66c216.32-14.75 535.9 0 766.98 0 122.91-14.75 260.56 0 398.23 0 108.16 0 309.75-34.41 383.49 44.25l186.82-231.07c383.49-44.25 845.65 14.75 1243.89-29.5v-29.5c14.75-49.17 0-34.42 93.41-93.42-201.58-14.75-186.83 29.5-368.74 29.5-186.83-14.75-201.58-93.41-447.4-29.5-29.5-14.75 14.75-93.41-290.08-78.66-49.16 93.41 14.75 63.91-78.66 63.91h-216.33c-319.58 0-1209.46-29.5-1347.12 44.25" class="fil13"/><path d="m9271.49 12141.04 2733.58 29.5c201.58 0 570.32 63.91 673.57 0l172.08-108.16c-216.33-73.75-2241.93-29.5-2748.34-29.5-245.82 0-648.98-73.75-830.89 108.16" class="fil25"/><path d="m9517.32 6811.54 181.91 766.97c63.91 93.41 49.16 49.17 49.16 152.41 88.5 19.66 108.17 0 152.42 63.91 137.66 93.42 339.24 1012.81 427.74 1229.14l265.49-78.67c-49.17-260.57-368.74-875.14-491.66-1150.47-186.82-368.74-388.4-693.23-570.31-1047.22z" class="fil26"/><path d="M10362.96 9132.13c73.75 152.41 334.32 1179.96 398.24 1302.87 29.5 63.92-14.75 34.43 44.25 49.18l-14.75-417.92 63.91-44.25h-122.91c14.75-231.06 137.66-231.06 275.32-122.9-49.16 93.41 73.74 44.24-93.41 108.16l186.83-14.75 14.75-78.66c-137.67-324.49-108.17-535.9-368.74-875.14h-78.67v78.66z" class="fil1"/><path d="m10790.7 10405.5-59 44.25-19.66-44.25-29.5-44.25-14.75-78.66-29.5-78.66-49.17-181.92-59-216.31-59-216.33-63.91-196.66-14.75-78.67-29.5-73.75-14.75-49.16-19.66-44.25 63.91-29.5 14.75 44.25 14.75 59 29.5 63.91 34.41 93.42 59 181.91 44.25 216.33 63.92 216.32 59 196.66 19.66 78.66 29.5 59 14.75 63.91zm-14.75 78.68h78.66l-49.16 29.49h-29.5l-29.5-14.75-14.75-14.74v-34.43l59-44.25 14.75 44.25-14.75-14.75 29.5 14.75zm78.66 0v44.24l-49.16-14.75zm-34.41-417.92 34.41 417.92h-78.66l-14.75-417.92 14.75-29.5zm-59 0v-14.75l14.75-14.75zm122.91-29.5-78.66 63.93-29.5-63.93 59-44.24 19.66-14.75zm-29.5-58.99h122.92l-93.42 58.99zm-122.91 14.75 122.91-14.75v73.74h-108.16l-49.16-29.5zm14.75 58.99h-49.16v-29.5zm290.08-137.65-59-29.5 14.75 44.24-34.42-14.74-14.75-14.75-29.5-14.75h-14.75l-29.5-14.75h-49.16l-14.75 14.75-14.75 14.75v29.49l-14.75 14.75v78.66h-78.66v-44.24l14.75-49.17v-29.49l19.66-29.5 14.75-14.75 14.75-34.41 29.5-14.75h14.75l29.5-14.75h34.41l29.5 14.75h14.75l29.5 14.75 34.42 14.74 29.5 19.67 29.5 14.75zm0-44.25 14.75 14.75-14.75 29.5zm-122.92 108.16v73.74l-14.75-73.74 44.25-19.67 34.42-14.75v34.42l-19.67-19.67v-29.5l19.67-29.49v-14.75l59 29.5v78.66l-14.75 14.75h-14.75l-29.5 14.74-49.17 14.75zm0 73.74-260.57 14.75 245.82-88.49zm186.83-29.5-186.83 29.5v-73.74l167.17-19.67 49.16 49.17zm29.5-14.74v14.74h-29.5zm14.75-93.41-14.75 93.41-78.66-14.75 29.5-93.41h63.91zm0-14.75v14.75zm-398.24-830.89 14.75-59 14.75 14.75 44.25 59 49.16 63.91 29.5 59 29.5 49.16 29.5 59 19.67 49.17 14.75 59 14.75 44.25 29.5 108.16 29.5 108.16 14.75 49.17 19.66 59 14.75 44.24 29.5 63.92-63.91 29.49-29.5-58.99-14.75-63.91-29.5-59-14.75-49.18-14.75-108.15-34.42-88.5-14.75-63.91-14.75-44.25-29.5-49.17-14.75-59-34.41-44.25-29.5-63.91-44.25-59-29.5-63.91zm14.75-59h14.75v14.75zm-93.41-14.75 93.41 14.75-14.75 59h-78.66l-44.25-44.25zm-44.25 29.5v-29.5h44.25zm0 93.41v-93.41l73.75 14.75v78.66l-29.5 29.5zm73.75 0v29.5h-29.5zm-334.33-19.66 304.83-14.75v63.91l-304.83 29.5-34.41-29.5zm-34.41 49.16-29.5-49.16h63.91z" class="fil2"/><path d="M14124.1 6718.12c-78.68 63.92-137.67 260.58-167.17 368.73-63.91 152.42-108.16 216.34-157.32 339.24h49.16l-29.5 59c245.83-152.41 398.24-137.66 688.31-59l63.91-707.97-34.41-108.16-334.32 14.75c-49.17 63.91-49.17 172.08-78.66 93.41" class="fil27"/><path d="M16995.34 6688.62c93.41 93.42 324.49 152.42 447.4 181.92 0-260.58 29.5-717.82-14.75-948.9-108.16-63.91-309.74-186.82-417.9-172.07z" style="fill:#babcbd"/><path d="m2098.3 7780.08 211.41 44.25c0-462.15 265.49-1642.11 216.33-1981.35l-108.17-78.66-108.16 19.66 34.41 44.25z" class="fil18"/><path d="M18642.37 13109.59c-324.49 44.25-309.74-368.73-294.99-447.41 0-58.99 49.16-108.16 49.16-152.4-49.16-290.08 59 63.91-49.16-93.41-122.91 137.65-88.5 368.73-59 540.81 93.41 353.98 550.65 412.98 614.57-108.16 29.5-172.09 14.75-398.24-172.08-476.9-349.08-137.67-506.4 658.8-88.5 737.47" style="fill:#56595a"/><path d="M1975.38 7932.5c122.92-44.25 73.75-44.25 211.42-14.75-29.5 59-73.75 122.91-167.17 137.66zm-368.74 93.41c108.17 108.16 59 44.25 122.92 59 73.75 14.75 14.75 14.75 88.5 49.16l142.57 14.75c44.25 181.92-34.41 196.67 29.5 383.49 29.5 152.42 44.25 167.17 44.25 339.24 137.67 152.42 137.67 629.32 186.83 781.73l196.66 14.75-73.75-368.74c-14.75-122.91-49.16-122.91-63.91-260.57l-93.41-845.65-88.5-14.75 59 368.74c0 108.17 14.75 44.25-44.25 108.17-93.42-63.92-152.42-447.41-78.67-476.91l-44.25-78.66h196.67c108.16-196.66 19.66-245.83-103.25-304.83-216.33 0-309.74-29.5-476.91 122.92z" class="fil1"/><path d="m2221.21 7932.5-63.92-29.5 14.76 44.25-59.01-14.75h-63.91l-14.75 14.75-44.25 14.75-29.5-59 44.25-14.75 29.5-14.75 14.75-19.67h34.42l44.25 19.67 58.99 14.75zm-34.42-44.25h49.17l-14.75 44.25zm-196.66 181.91 59-29.5-29.5-14.75 14.75-14.75h29.5l19.67-14.75 14.75-19.66 14.74-14.75 14.76-14.75 14.75-29.5 14.74-14.75 63.92 29.5-14.75 29.5-19.67 14.75-14.74 34.41-29.5 14.75-14.75 29.5-29.5 14.75-34.42 14.75h-29.5zm44.25 14.75-29.5 14.75-14.75-29.5zm-29.5-167.16 44.25 122.91-59 29.5-49.16-122.91 19.66-44.25zm-63.91 29.5-14.75-29.5 34.41-14.75zm-211.41 108.16-14.75 59-34.42 19.66-14.75-19.66-29.5-14.75-14.75-14.75-29.5-29.5 44.25-44.25 29.5 29.5 14.75 14.75h19.66-34.41 14.75l34.42-14.75zm88.49 44.25v78.66h-14.74l-29.5-14.75-14.75-14.75v-14.75h-14.76 14.76-14.76l-29.49-19.66 14.75-59h44.25l14.74 14.75 14.76 14.75h14.74zh19.67zm0 78.66h-14.74zm122.92 14.75-122.92-14.75v-78.66l142.58 14.75 29.5 34.41zm19.66-78.66h29.5v34.41zm59 417.9-78.66 14.75v-29.5l-14.75-34.41v-181.91l14.75-29.5-14.75-34.42v-44.25l-14.75-29.5 78.66-14.75 14.75 29.5v324.49zm44.25 319.58-59 49.16v-122.91l-14.75-49.16v-29.5l-14.75-59-34.41-93.42 78.66-14.75 29.5 93.42 14.75 59v186.82zm-59 49.16v-29.5zm216.33 722.73v73.74l-34.42-29.49-14.74-78.66-14.76-88.5-14.74-108.16-14.75-122.92-14.76-63.91v-44.25l-14.74-63.91-14.75-44.25-19.67-44.25-14.75-49.17-14.75-14.75v-29.5l-14.75-14.75h-14.75l59-49.16 19.67 19.66 14.75 14.75v14.75l14.74 29.5 14.76 44.25 29.49 49.17 14.76 59v63.91l14.74 44.25 19.67 63.91 14.75 122.92 14.75 108.16v88.5l14.75 78.66zm0 73.74h-34.42v-29.49zm196.66 0h-196.66v-73.74h196.66l34.42 29.5zm34.42-44.24v44.24h-34.42zm-63.92-353.99 63.92 353.99-78.67 14.75-63.91-353.99zm-137.66-245.82 59-14.75 19.66 44.25v34.41l14.75 29.5v14.75l14.75 29.5 14.75 29.5v34.41l14.75 44.25-78.66 14.75v-44.25l-14.75-29.5-14.75-34.41v-14.75l-14.75-29.5v-29.5l-14.75-34.41zm-29.5-860.4 88.5 845.65-59 14.75-93.42-845.65 29.5-44.25zm-34.42-29.5h34.42v29.5zm-88.49-14.75 88.49 14.75v73.75l-88.49-14.75-34.42-29.5zm-34.42 44.25-14.75-44.25h49.17zm49.16 368.74-49.16-368.74 63.92-14.75 58.99 368.74zm-14.74 122.92 29.5-59h-44.25l44.25-34.42v14.75h-14.76v-59h73.75v93.42l-14.74 14.75-29.5 14.75zm44.25-14.75-14.75 29.5-29.5-14.75zm-137.67-476.91 59-44.25-14.75 59-14.75 14.75v137.67l14.75 34.41v44.25l14.75 29.5v49.16l19.67 29.5 14.75 29.5 14.74 14.75v14.75h14.76v19.67l-29.5 59-14.75-14.75h-19.67v-14.75l-14.75-14.75-14.75-34.42-14.75-29.5-14.75-44.25-14.75-49.16v-29.5l-14.75-44.25v-49.16l-14.75-44.25v-59l14.75-49.17v-29.5l14.75-14.75h14.75v-14.75l29.5-14.75zm59-44.25 34.42 44.25-49.17 14.75zm-44.25-78.66 44.25 78.66-59 44.25-44.25-78.66 29.5-59zm-59 44.25-34.41-59h63.91zm226.16 19.66h-196.66v-78.66h196.66l34.42 59zm34.42-19.66-14.75 19.66h-19.67zm-137.66-290.08v-73.75l14.75 14.75 44.25 14.75 44.24 29.5 19.67 14.75 14.75 14.75 14.75 14.75 14.75 34.42 14.75 14.75v108.16l-14.75 29.5-14.75 44.25-14.75 29.5-63.92-29.5 14.76-44.25 14.74-14.75v-29.5l19.67-19.66v-44.25l-19.67-14.75V7903l-14.74-14.75h-14.76l-14.74-14.75-29.51-34.42-49.16-14.75zm0-73.75h14.75v14.75zm-447.41 167.17h-78.66l19.66-29.5 29.5-34.42 29.5-14.75 29.5-29.5 34.41-14.75 29.51-14.75h29.5l29.49-14.75h29.5l63.92-14.75h201.58v73.75h-265.5l-14.74 14.75h-29.5l-14.75 14.75h-29.5l-14.75 19.67-34.42 29.5-29.5 14.75-29.5 29.5zm-78.66 0V7903l19.66-14.75zm19.66 108.16-19.66-108.16h78.66l14.75 108.16-59 29.5zm14.75 29.5-14.75-14.75v-14.75z" class="fil2"/><path d="M2309.71 7824.33c142.57 49.17 78.66 93.42 245.81 93.42l122.93-2060.02c-59-59-73.75-29.5-152.42-14.75 49.17 339.24-216.32 1519.2-216.32 1981.35" class="fil26"/><path d="M12157.48 7917.75v152.41c63.92 570.32-152.41 1322.55-14.75 1907.61 44.25-172.07 14.75-63.91 78.67-108.16-93.42-447.4 122.91-2291.1 231.07-2782.76-63.91-73.74-63.91-44.24-34.41-181.9 14.75-78.66 14.75-78.66 34.41-172.08 0-122.91 29.5-260.57 14.75-398.24-63.91 78.67-34.41 63.92-63.91 186.83-44.25 260.58-181.91 1302.87-245.83 1396.29" class="fil19"/><path d="m3892.82 818.3 78.67 49.17c216.32 137.66 2074.77 1214.37 2163.26 1229.12h34.43c-108.18-78.66-14.75 0-49.18-93.41v-58.99c-245.82-108.17-1474.95-801.4-1735.52-983.31l-550.66-339.24z" class="fil30"/><path d="m3833.82 621.64 550.65 339.24c260.58 181.91 1489.7 875.14 1735.53 983.31v58.99l260.58 122.91-14.75-108.16-29.5-73.74c-304.82-122.92-968.55-511.33-1273.38-693.23-245.82-167.17-1012.8-644.07-1243.88-722.73z" style="fill:#bec1c3"/><path d="M12727.8 12495.03c-49.16 78.66-49.16 44.25-29.5 167.15h1563.45l14.75-167.15c-211.4-14.75-1425.79-44.25-1548.7 0" class="fil32"/><path d="m12698.3 12878.51 14.75 122.91c152.41 63.93 1317.62 29.5 1548.7 14.75l14.75-167.15c-290.07-29.5-840.72 0-1179.96-14.75-172.08 0-294.99-14.75-398.24 44.24" class="fil33"/><path d="m9055.16 10130.19-29.5 108.16 1199.63-63.92v-73.74l-78.66-186.83c-216.33 0-412.99 14.74-629.32 14.74-186.82 14.75-432.65 0-462.15 201.59" class="fil1"/><path d="m8996.16 10238.35 29.5-108.16 59 14.75-14.75 108.16-44.25 14.74zm29.5 29.49-49.16 14.75 19.66-44.24zm1199.63-63.91-1199.63 63.91v-63.91l1179.97-73.74 49.16 44.24zm29.5-29.5v29.5h-29.5zm0-73.74v73.74h-78.66v-73.74l78.66-19.68zm0-19.68v19.68zm-63.91-181.9 63.91 181.9-78.66 34.43-59-186.84 29.5-44.24zm-44.25-14.75h29.5l14.75 14.75zm-614.57 93.41-14.75-78.66h167.17l78.66-14.75h383.49v58.99h-152.41l-78.67 14.75h-231.07l-73.75 19.67zm-447.4 167.17-59-14.75h-14.75l14.75-29.5v-19.68l14.75-14.75v-14.75l14.75-14.75 14.75-14.75 14.75-14.74 14.75-14.75 19.66-34.42 44.25-14.75 29.5-14.75h29.5l34.42-14.74h44.25l29.5-14.75h186.82l14.75 78.66h-231.07l-29.5 14.75h-29.5l-34.42 14.75h-14.75l-29.5 14.74-14.75 14.75-14.75 14.75-14.75 14.75-19.66 14.75v34.43l-14.75 14.75zm0 0" class="fil2"/><path d="M12713.05 12308.19c196.67 34.43 1440.54 34.43 1612.63-14.74l29.5-137.66c-167.17-29.5-1061.97-14.75-1322.55-14.75-231.08 0-275.33-29.5-319.58 167.15" class="fil34"/><path d="m10392.46 6044.56-93.42 29.5 122.92 29.5c93.41 368.74 186.82 737.48 290.07 1106.22 49.17 172.07 216.33 998.04 309.74 1076.71h93.42c-49.18-275.33-540.82-2104.27-629.32-2276.35z" class="fil35"/><path d="M15844.87 7209.78c29.5 93.41 78.67 137.65 93.42 231.06 29.5 108.17 29.5 231.08 44.25 339.24l658.8 14.75c-44.24-29.5-44.24-29.5-103.24-29.5-19.66 0-63.91 0-108.16-14.75l-93.41-540.8c-122.92-59-368.74-73.75-491.66 0" class="fil13"/><path d="m12757.3 13203 44.25 137.66c216.33 14.75 1386.46 29.5 1538.88-14.75l-14.75-137.65c-78.68-19.67-1474.96-49.17-1568.38 14.74" style="fill:#626464"/><path d="m13032.63 11713.3 1597.86-19.66c63.91-122.92-73.75-44.25 122.91-88.5l137.67-78.67-1578.2 14.75c-122.92 14.75-353.99-14.75-280.24 172.08m1504.45 181.91c-73.74-78.66-275.33-44.25-383.49-44.25-137.65 0-275.32-14.75-398.23 0-231.08 0-550.66-14.75-766.98 0l-137.67 44.25v122.92l1597.88-14.75z" class="fil34"/><path d="M17580.4 10498.92h44.25c280.24 0 599.82 29.5 880.06 59 122.91 14.75 290.07 34.41 412.99 34.41 152.41 0 275.32 44.25 412.99 44.25l-14.75-78.66-1548.71-122.92c14.75-535.89 59-1258.62-19.67-1779.77l-14.75 1765.02c-398.24 29.5-1135.71-167.15-1504.45-93.41 78.67 78.66 535.9 93.41 678.48 93.41 88.49 14.75 644.06 29.5 673.56 78.67" class="fil1"/><path d="m17624.65 10528.42-44.25 14.75-14.75-73.74 44.25-19.68h14.75zm-14.75-78.67h14.75zm894.81 78.67v63.91l-108.17-19.66h-108.16l-108.16-14.75-122.92-14.75h-216.32l-108.17-14.75h-108.16v-78.67l108.16 19.68h216.33l122.91 14.75h108.17l108.16 14.74 108.16 14.75zm412.99 29.5v63.91h-216.33l-44.25-14.75h-108.16l-44.25-14.75v-63.91h88.5l63.91 14.75h167.16l49.17 14.75zm368.74 78.66h78.66l-34.41 44.25-59-14.75h-49.17l-44.25-14.75h-59l-49.16-14.75h-108.16l-44.25-14.75v-63.91h108.16l59 14.75h49.16l44.25 19.66h44.25l63.92 14.75h44.25zm78.66 0v44.25h-34.41zm0-78.66v78.66h-78.66v-78.66l44.25-29.5zm-34.41-29.5h34.41v29.5zm-1563.46-122.92 1563.46 122.92-14.75 78.66-1548.71-137.65-34.42-34.43zm0 63.93h-34.42V10435zm14.75-1814.2h-63.92zl14.75 108.16 14.75 108.16v103.25l14.75 108.17v693.23l-14.75 231.07v216.33l-14.75 211.4h-63.92v-211.4l14.75-216.33v-924.3l-14.75-108.17v-103.25l-14.75-108.16v-93.41zm-63.92 0v-506.41l63.92 506.41zm-14.75 1765.02 14.75-1765.02h63.92v1765.02l-34.42 29.5zm78.67 0v29.5h-34.42zm-1538.87-122.91-44.25 63.91 14.75-63.91 29.5-14.75h417.91l103.24 14.75 93.41 14.75h108.16l216.33 34.41 196.66 29.5h201.58l78.66 14.75 73.75-14.75 14.75 73.75h-275.32l-93.42-14.75-211.4-14.75-201.59-29.5-108.16-14.75h-108.15l-88.5-14.75h-108.17l-93.41-14.75h-78.66l-44.25 14.75h-108.17zm-44.25 63.91-44.25-49.16 59-14.75zm707.98 29.5-19.67 78.68h-58.99l-78.66-19.68h-108.18l-103.24-14.75h-93.41l-63.91-14.75h-44.25l-44.25-14.75-34.42-14.75h-14.75l-14.75-14.75h-14.75l-14.75-14.75 44.25-63.91v14.75h34.42l14.75 14.75h29.5l29.5 19.66 49.16 14.75h88.5l63.91 14.75h108.17l88.5 14.75zm658.81 78.68 14.75 73.74-44.25-29.5 14.75 14.75h-14.75v-14.75h-34.41l-29.5-14.75h-108.17l-108.16-14.74h-103.24l-108.16-14.75h-157.34l19.67-78.68h44.24l93.43 14.75h231.06l103.25 14.75 93.42 14.75h49.16l29.5 14.75h14.75l14.75 19.68 14.75 14.75 14.75 14.74zm14.75 73.74h-29.5l-14.75-29.5z" class="fil2"/><path d="m6380.58 2126.09-14.75 137.66 14.75 44.25c186.82-59 511.31 201.58 678.48 309.74 216.32 108.17 412.99 231.08 614.56 339.24 181.92 108.17 462.16 290.08 644.07 368.74 186.83 73.75 476.89 304.83 644.06 334.33-152.42-196.66-1057.05-614.57-1317.63-811.23l-1155.38-693.23c-73.75-73.75 0-44.25-122.91-137.66z" class="fil1"/><path d="m6321.58 2263.75 14.75-137.66h78.66l-14.75 137.66-63.91 14.75zm14.75 14.75-14.75-14.75zm14.75 49.17-14.75-49.17 63.91-29.5 14.75 44.25-14.75 49.17zm49.16 14.75-34.41 14.75-14.75-29.5zm673.57 245.82-29.5 59-78.66-44.25-73.75-63.91-93.42-44.25-93.41-63.91-44.25-29.5-49.16-14.75-44.25-14.75-29.5-14.75-49.17-14.75h-88.5l-34.41-63.92 34.41-14.75h103.25l49.17 14.75 44.25 14.75 49.16 34.42 44.25 14.75 59 29.5 93.41 59 78.67 49.16 93.41 59zm614.57 334.33-29.5 78.66-78.67-44.25-73.75-49.16-78.66-44.25-78.66-44.25-73.75-49.16-78.67-44.25-78.66-49.17-73.75-29.5 29.5-59 78.66 29.5 73.75 44.25 78.67 49.17 78.66 44.25 73.75 44.25 78.66 49.16 73.75 44.25zm629.31 368.74-14.75 63.91-78.66-29.5-73.75-49.16-93.41-44.25-78.67-44.25-88.5-49.16-78.66-59-93.41-49.17-59-29.5 29.5-78.66 78.66 49.16 73.75 44.25 78.66 63.92 93.42 44.25 73.75 44.25 93.41 49.16 78.66 44.25zm614.56 388.4 63.91-49.16-49.16 63.91h-29.5l-44.24-14.75-34.42-19.66-44.24-14.75-78.68-44.25-88.49-63.91-93.41-44.25-78.66-59-44.25-19.67-49.18-29.5-29.49-14.75-29.5-14.75 14.75-63.91 44.24 19.66 49.18 14.75 29.5 29.5 44.25 14.75 93.4 63.92 78.67 44.25 93.42 59 73.74 34.41 49.17 14.75 29.5 14.75 29.49 14.75h29.5zm63.91-49.16 44.25 78.66-93.41-14.75zm-1386.45-752.23 49.17-59 59 44.25 63.91 44.25 88.5 49.16 78.66 44.25 201.58 108.17 211.4 108.16 108.18 59 93.41 63.91 93.41 44.25 93.42 63.92 73.74 44.25 63.92 44.25 29.49 34.41 29.5 14.75 14.75 29.5 34.41 14.75-63.91 49.16-14.75-19.66-14.74-14.75-29.5-14.75-19.67-29.5-73.74-44.25-63.93-49.16-88.49-59-93.41-49.17-108.16-59-93.42-49.16-216.32-122.91-196.67-103.25-93.41-49.17-78.66-44.25-73.75-49.16zm-1106.22-752.23 1155.39 693.23-49.17 59-1135.72-693.23h-14.75zm-29.5 59h-14.75zm-59-181.91-78.66 14.75 63.91-29.5 29.5 29.5 29.5 29.5 14.75 19.67v14.74l14.75 14.75v14.75l34.42 14.75-63.92 59-14.75-29.5-14.75-14.75-14.75-29.5v-14.75h-14.75l-19.66-29.49-29.5-34.42zm-78.66 14.75v-93.42l63.91 63.92zm0 108.16v-108.16l78.66-14.75v122.91zm78.66 0" class="fil2"/><path d="m10515.37 6949.2 383.49 1352.04 122.91-14.75c-93.41-78.67-260.57-904.64-309.74-1076.71-103.25-368.74-196.66-737.48-290.07-1106.22l-122.92-29.5c0 245.82 186.83 614.56 216.33 875.14" style="fill:#959798"/><path d="M12973.63 13645.49c353.99 0 1194.71 93.41 1489.71-14.75l-78.68-122.91c-245.82-14.75-1243.87-29.5-1440.53 14.75z" class="fil38"/><path d="m7594.96 12096.79-59 44.25h59c-73.75 108.16 0 44.25-88.5 78.66 29.5 44.25 1135.72 29.5 1288.12 14.75l59-201.57c-383.49 49.16-889.88-29.5-1258.62 63.91" style="fill:#6d716d"/><path d="m7550.71 13139.09 14.75 14.75c181.92 63.91 1027.55 63.91 1243.89 34.42v-142.59c-137.68-59-1076.72-29.5-1288.14-29.5 0 122.92-14.75 14.75 29.5 122.92" class="fil38"/><path d="M7457.3 12878.51c152.41 29.5 1120.96 29.5 1273.37 0v-152.4c-304.81-63.93-1012.79 44.25-1243.87-29.5z" class="fil33"/><path d="M11375.76 11619.89c108.17 44.25 167.16 14.75 245.82 93.41 181.91 44.25 1165.22 59 1322.55 0l29.5-157.33c-108.17 49.17-599.82 14.75-752.23 14.75-540.82 19.67-353.99-14.75-845.64 49.17" class="fil13"/><path d="M2034.38 8178.32h63.91l88.5 14.75 93.42 845.65c14.75 137.66 49.16 137.66 63.91 260.57 14.75-137.66 44.25-152.41 122.91-231.07 59-73.75 14.75-108.17 44.25-231.08-108.16-122.91-108.16-412.99-93.41-565.4l122.91 14.75c-88.5-93.42-245.82-108.17-353.99-152.42v-34.41h-196.66z" class="fil1"/><path d="m2083.55 8222.57-49.17-14.75 14.75-73.75 49.17 14.75v73.75zm14.75 0h-14.75zm88.5 14.75-88.5-14.75v-73.75l88.5 14.75 34.41 29.5zm0-73.75h34.41v29.5zm63.91 889.9-93.41-845.65 63.91-14.75 88.5 845.65zm59 245.82h78.66l-78.66 14.75v-44.25l-14.75-29.5-14.75-34.41v-14.75l-14.75-29.5v-29.5l-14.75-34.41v-44.25l59-14.75 19.66 44.25v34.41l14.75 29.5v14.75l14.75 29.5 14.75 29.5v34.41l14.75 44.25zm78.66 0-14.75 383.49-63.91-368.74zm44.25-245.82 63.92 29.5v14.75l-29.5 34.41-34.42 14.75-14.75 14.75-14.75 14.75v29.5l-14.75 14.75v78.66h-78.66v-44.25l19.66-49.16v-29.5l14.75-29.5 14.75-29.5 29.5-19.66 14.75-29.5 29.5-29.5zm63.92 29.5v14.75zm-14.75-211.42 59-49.16v152.41l-14.75 34.42v29.5l-14.75 14.75-14.75 29.5-63.92-29.5 19.67-29.5v-14.75l14.75-14.75V8886.3l14.75-49.16zm59-49.16v29.5zm-122.92-599.82-14.75 78.67 49.17-29.5v290.07l14.75 44.25v34.42l14.75 44.25v29.5l14.75 34.41 14.75 29.5 14.75 14.75 14.75 29.5-59 49.16-14.75-34.41-14.75-29.5-19.67-29.5-14.75-49.16-14.75-29.5-14.75-44.25v-78.67l-14.75-93.41v-226.16zm-44.25 34.42 14.75-34.42h29.5zm152.42 59-122.92-14.75 14.75-78.67 122.92 14.75 14.75 19.67zm29.5-59 93.41 73.75-122.91-14.75zm-398.24-108.17 78.66-34.41-29.5-14.75 88.5 34.41 93.41 14.75 44.25 29.5 49.17 14.75 14.75 14.75 29.5 14.75 14.75 14.75 14.75 19.67-44.25 44.25-14.75-14.75h-14.75l-14.75-14.75-14.75-14.75-49.17-19.67-44.25-14.75-93.41-29.5-78.66-29.5zm29.5 14.75h-14.75l-14.75-14.75zm34.41-78.66 14.75 29.5-78.66 34.41v-49.16l29.5-44.25zm-34.41-29.5h34.41v29.5zm-196.67 0h196.67v78.66h-196.67l-29.5-19.66zm-29.5 59-34.41-59h63.91zm44.25 78.66-44.25-78.66 59-44.25 44.25 78.66-29.5 59zm29.5 14.75h-14.75l-14.75-14.75z" class="fil2"/><path d="M1744.3 8394.65c59 275.33 167.17 580.15 137.67 860.39v14.75l59-14.75-14.75 122.92c137.66-186.83 34.41-78.67 137.66-108.17 34.41-231.07-44.25-216.32-29.5-398.24 0-172.07-14.75-186.82-44.25-339.24-63.91-186.82 14.75-201.57-29.5-383.49l-142.58-14.75-152.41 88.5c63.91 34.42 172.08 122.92 78.66 172.08" class="fil1"/><path d="m1911.47 9269.79-59-29.5v14.75-216.32l-14.75-44.25v-63.92l-19.67-44.25-14.75-63.91-14.75-108.16-29.5-108.17-14.75-103.25-29.5-93.41 73.75-14.75 14.75 88.5 34.42 108.16 14.75 108.17 29.5 108.16 14.75 63.91v59l14.75 44.25v63.92l14.75 59v157.32zm14.75-14.75v14.75h-14.75zm-88.5 0 14.75-14.75 59 29.5v14.75l-29.5 29.5zm44.25 59-63.92 14.75 19.67-73.75zm59-14.75-59 14.75-14.75-73.75 59-19.66 49.16 34.41zm-14.75-78.66 49.16-14.75v49.16zm-29.5 157.33v-122.92h78.66v122.92l-14.75 14.75zm63.91 14.75-63.91 108.16v-122.91zm73.75-122.92 63.91 14.75-14.75 29.5h-63.91l-14.75-14.75-14.75-14.75h44.25l-14.75 14.75-59 93.42-63.91-49.17 63.91-88.5 29.5-14.75h73.75zm63.91 14.75v14.75l-14.75 14.75zm-93.41-412.99h59v73.75l19.66 29.5v34.42l14.75 29.5v44.25l14.75 49.16v108.16l-14.75 44.25-63.91-14.75v-172.07l-14.75-44.25-14.75-29.5zm-63.91-324.49 78.66-14.75 29.5 93.42 14.75 59v186.82h-59v-93.41l-14.75-49.16v-29.5l-14.75-59zm0-353.99 19.66-78.66 29.5 34.41 14.75 29.5v324.49l14.75 29.5-78.66 14.75v-29.5l-14.75-34.41v-181.91l14.75-29.5-14.75-34.42v-44.25l-14.75-29.5zm19.66-78.66h29.5v34.41zm-142.58-14.75 142.58 14.75-19.66 78.66-122.92-14.75-14.75-78.66zm-14.75 0h14.75zm-152.41 78.66 152.41-78.66 34.42 78.66-137.67 78.67h-49.16zm0 78.67-44.25-49.17 44.25-29.5zm137.66 137.66-73.75 14.75 14.75-49.16h14.75v-29.5l-14.75-14.75-14.75-14.75-14.75-14.75-19.66-29.5h-29.5l49.16-63.92 14.75 14.75 29.5 14.75 29.5 34.42 14.75 29.5 14.75 14.75v14.75l14.75 14.75v49.16l-14.75 14.75-14.75 14.75-14.75 14.75zm-73.75 14.75v-29.5l14.75-19.66z" class="fil2"/><path d="M7609.71 11939.46c172.08-44.25 570.32-14.75 771.89-14.75 245.83 0 565.4 63.92 673.56-137.66-181.9-73.75-998.05-14.75-1258.62-14.75-122.92 14.75-152.42 44.25-186.83 167.16" class="fil34"/><path d="M4050.15 1019.88 6292.08 2278.5l29.5-29.5c-78.66-63.91-137.65-78.66-186.83-152.41-88.49-14.75-1946.94-1091.46-2163.26-1229.12h-44.25z" style="fill:#050401"/><path d="M7472.05 12416.37v157.32c137.66-78.66 1012.79 14.75 1278.29-19.67l14.74-167.15-1258.62-14.75c-49.16 29.5-19.66 14.75-34.41 44.25" class="fil32"/><path d="M2186.79 8099.66v34.41c108.17 44.25 265.49 59 353.99 152.42v-14.75l34.42-14.75 781.72 59v-29.5s0-63.92-122.92-78.67c-63.91-14.75-108.16-44.25-152.4 0-172.09-44.25-447.4-73.75-570.32-137.66l29.5-122.91 14.74-29.5c-167.15 0-103.24-44.25-245.81-93.42l-211.42-44.25-14.75 14.75c122.92 59 211.42 108.17 103.25 304.83" class="fil1"/><path d="M2157.29 8148.82v-49.16l63.92-14.75 14.75 29.5-49.17 49.16zm29.5 14.75h-14.75l-14.75-14.75zm324.49 122.92 63.92-14.75-63.92 29.5-14.75-14.75h-14.75l-14.75-14.75-14.75-14.75-49.16-19.67-44.25-14.75-93.41-29.5-78.67-29.5 19.67-63.91 88.5 34.41 93.41 14.75 44.25 29.5 49.16 14.75 14.75 14.75 29.5 14.75 14.75 14.75 14.74 19.67zm63.92-14.75 29.5 122.91-93.42-93.41zm0-14.75v14.75l-63.92 14.75h-14.75l29.5-63.92zm-78.67 29.5v-49.17l29.5-14.75zm78.67 14.75h-34.42l-14.75-78.67h49.17zm781.72 44.25-781.72-44.25v-78.67l781.72 49.17 29.5 29.5zm29.5-44.25 14.75 44.25h-44.25zm0 0-58.99-29.5 58.99 14.75zl-58.99 14.75v-14.75zM3234 8237.32v-73.75l44.25 14.75 49.18 14.75 29.49 14.75 14.75 14.75 14.75 14.75v34.42h-58.99l58.99 29.5-73.74-14.75v-14.75l-19.68-14.75h-29.5zm-152.4 0 14.75-59h-49.17 19.67l14.75-14.75h14.75l14.74-14.75h44.25l49.16 14.75h29.5v73.75l-63.91-14.75h-59zm29.49-14.75-14.74 14.75h-14.75zm-629.31-167.16 73.74 29.5-29.49-44.25 29.49 14.75h19.68l29.5 14.75 29.5 14.75 78.66 14.75 73.74 14.75 78.67 19.66h78.67l73.74 14.75 78.67 29.5-14.75 59-78.66-14.75-78.68-14.75-73.74-14.75-78.66-14.75-73.75-14.75-78.66-14.75h-29.5l-34.43-14.75-29.49-19.66-29.5-14.75zm14.75 44.25-14.75-14.75v-29.5zm93.42-137.66-34.43 122.91-73.74-29.5 29.5-108.16zm0-29.5v29.5l-78.67-14.75 14.75-44.25 29.49-14.75zm-34.43-44.25h49.18l-14.75 44.25zm-260.56-34.42 14.75-73.75 63.91 29.5 29.5 14.75 29.5 14.75 19.66 14.75 14.75 19.67h44.25l44.24 14.75v59h-88.49l-34.41-14.75-29.5-14.75-14.75-14.75-29.5-14.75-14.75-14.75zm-196.67-103.25 211.42 29.5-14.75 73.75-196.67-29.5-14.75-73.75zm-14.75 0h14.75zm0 0 29.5 73.75h-49.16zm-19.66 73.75-73.75-44.25 93.41-29.5zm157.33 260.58-63.92 14.75v-14.75l14.75-44.25 14.75-14.75v-29.5l19.67-19.66v-44.25l-19.67-14.75V7903l-14.75-14.75h-14.75l-14.75-14.75-29.5-34.42-49.16-14.75 34.41-59 44.25 14.75 44.25 29.5 19.67 14.75 14.75 14.75 14.75 14.75 14.75 34.42 14.75 14.75v108.16l-14.75 29.5-14.75 44.25-14.75 29.5zm-63.92 14.75-14.75-14.75h14.75z" class="fil2"/><path d="M7919.45 11619.89c44.25 73.75-49.16 44.25 245.83 44.25 275.33-14.75 707.98 14.75 968.56-14.75 152.4-14.75 442.48-108.17 565.39-78.67 231.08 34.42 339.24 19.67 599.82 0-304.83-29.5-614.57-73.75-953.81-44.25-245.83 14.75-840.72 29.5-1057.05 0-108.16-14.75-275.32 14.75-368.74 93.42" class="fil34"/><path d="m7717.87 13463.58 78.67 44.25 1179.96-29.5-88.49-122.92c-368.74-63.91-830.9 0-1214.39-29.5z" class="fil25"/><path d="M2540.79 8394.65c34.41 14.75 34.41 260.58 34.41 304.83 14.75 172.07 73.75 309.74 29.5 275.32l167.16 49.17c49.17-201.58 49.17-368.74 137.67-540.82l-14.75-88.5c-137.67 44.25-59 44.25-167.17-14.75l137.67-49.16-290.08-73.75-34.41 14.75z" class="fil1"/><path d="M2604.7 8699.48h-63.92v-59l-14.75-108.17v-108.16l14.75 14.75 14.74-78.66 19.68 19.66 14.75 14.75v29.5l14.75 14.75zm14.75 245.82-29.5 63.92zh-14.75l-14.75 14.75v14.75-29.5l-14.75-29.5-19.68-29.5v-63.91l-14.74-59v-63.91h63.92l14.75 63.91v44.25l14.75 63.91 14.75 29.5v93.42l-14.75 14.75h-44.25zm-29.5 63.92-157.33-122.92 186.83 59zm181.91 44.25-181.91-44.25 29.5-63.92 167.15 49.17 34.42 29.5zm49.16-29.5-19.67 44.25-29.49-14.75zm44.25-521.16 78.67-19.66v34.41l-19.68 29.5-14.75 14.75-14.75 29.5v34.42l-14.75 59-14.74 63.91-14.75 59-14.75 78.66v59l-14.75 78.67-78.66-14.75 14.75-63.92 14.75-73.75v-63.91l14.74-78.66 14.75-59 19.67-63.92 14.75-29.5 14.75-29.5zl14.74-34.41zm78.67-19.66v34.41zm-19.68-88.5 19.68 88.5-78.67 19.66v-108.16l14.74-34.41zm-44.25-34.41 44.25-14.75v49.16zm-152.4-29.5 14.75 78.66 14.75-63.91 44.24 34.41h19.67l58.99-19.66 29.5 63.91-73.74 29.5h-49.17l-29.49-14.75-44.25-29.5zm-14.75 78.66-63.91-49.16 78.66-29.5zm167.15-49.16-137.65 49.16-14.75-78.66 137.66-29.5h14.74zm0-59 137.67 29.5-137.67 29.5zm-290.06-78.67 290.06 78.67-14.74 59-309.75-59 19.68-78.67zm-14.75 0h14.75zm-49.17 0h49.17v78.67h-34.42l-44.25-29.5zm-29.5 49.17v-34.42l29.5-14.75zm14.75 137.66-14.75-137.66h78.67l14.75 122.91-49.17 44.25zm29.5 29.5-29.5-14.75v-14.75z" class="fil2"/><path d="M13450.53 5135c73.75 78.66 275.33 34.41 457.23 0 186.84-29.5 260.58-29.5 447.42-29.5-167.17 152.41 462.14 216.33 585.05 383.49l29.5-260.58-93.41 14.75c-44.25-122.91-137.66-122.91-275.33-137.66-216.32-44.25 59-29.5-324.49-44.25-260.56-29.5-565.39 59-825.97 73.75" class="fil35"/><path d="M18548.96 10238.35c108.16 73.74 324.49 88.49 447.4 44.24 44.25-108.16 29.5-201.58-19.66-304.82-73.75-49.17-349.08-78.66-442.49-63.91z" style="fill:#231b18"/><path d="M1881.97 9269.79c-44.25 122.92-78.66 290.08-29.5 412.99l368.74-29.5c-49.16-152.41-49.16-629.31-186.83-781.73-14.75 181.92 63.92 167.17 29.5 398.24-103.25 29.5 0-78.66-137.66 108.17l14.75-122.92z" class="fil1"/><path d="M1852.47 9638.53v73.74l-34.41-29.49-14.75-14.75v-59l-14.75-34.41v-108.16l14.75-44.25v-59l14.75-49.17 19.66-44.25 73.75 14.75-14.75 44.25-14.75 49.17v44.25l-14.75 63.91v122.91l14.75 14.75v44.25zm0 73.74h-34.41v-29.49zm368.74-14.75-368.74 14.75v-73.74l368.74-14.75 29.5 29.5zm29.5-44.24 14.75 44.24h-44.25zm-186.83-781.73h-59l59-19.66 19.67 19.66 14.75 14.75v14.75l14.75 29.5 14.75 44.25 29.5 49.17 14.75 59v63.91l14.75 44.25 19.66 63.91 14.75 122.92 14.75 108.16v88.5l14.75 78.66-63.91 14.75-14.75-78.66-14.75-88.5-14.75-108.16-14.75-122.92-14.75-63.91v-44.25l-14.75-63.91-14.75-44.25-19.67-44.25-14.75-49.17-14.75-14.75v-29.5l-14.75-14.75h-14.75zm-59 0v-93.41l59 73.75zm78.67 442.49-19.67-73.75-29.5 29.5v-172.07l-14.75-44.25-14.75-29.5v-152.42h59v73.75l19.67 29.5v34.42l14.75 29.5v44.25l14.75 49.16v108.16l-14.75 44.25zm14.75-29.5v14.75l-14.75 14.75zm-201.58 93.42h78.66l-78.66-34.42 63.91-88.5 29.5-14.75h73.75l19.67 73.75h-63.92l-14.75-14.75-14.75-14.75h44.25l-14.75 14.75-59 93.42zm63.91 14.75-63.91 108.16v-122.91zm14.75-137.67v122.92h-78.66v-122.92l29.5-34.41zm-49.16-34.41 49.16-14.75v49.16zm-59 19.66 59-19.66 14.75 78.66-59 14.75-44.25-44.25zm-29.5 29.5 14.75-29.5h14.75z" class="fil2"/><path d="m9576.31 7794.83 172.08-63.91c0-103.24 14.75-59-49.16-152.41 14.75 63.91 34.41 49.17-14.75 108.16-137.67-216.33-216.33-889.88-319.58-1184.87l-122.91-44.25z" class="fil42"/><path d="m10131.88 5734.82 29.5 14.75c-29.5 157.32-29.5 186.82 122.92 231.07l-44.25 14.75c44.25 78.67 59 63.92 152.41 49.17l93.41-34.42c226.17-181.91-157.32-658.81-353.99-275.32" style="fill:#383737"/><path d="m17413.24 7976.75-417.91-14.75-14.75 324.49h245.83c137.66 14.75 108.16 14.75 186.83 93.41z" class="fil6"/><path d="m15063.14 10312.09 968.56 34.41 44.25-93.4c-108.16-78.67-353.99-14.75-491.65-29.5 108.16-19.67 137.66 29.5 231.07-19.67-137.66-14.75-231.07 0-368.74-14.75-201.57-14.75-137.66-44.24-275.32-108.17l44.25 157.34c-14.75 0-63.92 14.75-78.67 14.75-88.5 44.24-29.5 14.74-73.75 58.99" class="fil24"/><path d="M11621.58 11713.3c-78.66-78.66-137.65-49.16-245.82-93.41l-186.82-14.75h-766.98c93.41 59 1106.21 245.82 1199.62 108.16" class="fil32"/><path d="M19330.69 10695.58v-59c-137.66 0-260.58-44.25-412.99-44.25-122.92 0-290.08-19.66-412.99-34.41-280.24-29.5-599.82-59-880.06-59 122.92 59 216.33 44.25 368.74 73.75l-122.91 19.66c245.83 14.75 511.32 29.5 757.14 59z" class="fil1"/><path d="M19365.1 10636.58v59h-78.66v-59l44.25-29.5zm-34.41-29.5h34.41v29.5zm-412.99 14.75v-63.91h108.16l59 14.75h49.16l44.25 19.66h44.25l63.92 14.75h44.25v73.75l-59-14.75h-49.17l-44.25-14.75h-59l-49.16-14.75h-108.16zm-412.99-29.5v-63.91h88.5l63.91 14.75h167.16l49.17 14.75h44.25v63.91h-216.33l-44.25-14.75h-108.16zm-860.4-122.9-34.41 58.99 14.75-78.67 108.16 19.68h216.33l122.91 14.75h108.17l108.16 14.74 108.16 14.75 108.17 14.75v63.91l-108.17-19.66h-108.16l-108.16-14.75-122.92-14.75h-216.32l-108.17-14.75h-108.16zm-34.41 58.99-122.91-78.67h137.66zm383.49 78.66-14.75-78.66v78.66l-88.5-14.75h-93.41l-49.17-19.66h-44.25l-29.5-14.75-14.75-14.75h-34.41l-14.75-14.75 34.41-58.99h14.75l29.5 14.75 14.75 14.74h14.75l49.17 14.75h29.5l93.41 14.75h103.25zm0-78.66 216.33 44.25-216.33 34.41zm-122.91 29.5 108.16-29.5 14.75 78.66-103.25 14.75h-19.66zm0 63.91-334.33-14.75 334.33-49.16zm757.14-14.75v73.75h-108.16l-93.42-14.75h-93.41l-93.41-14.75h-88.5l-93.42-14.75h-93.41l-93.41-14.75v-78.66l93.41 14.75h108.16l93.42 14.75h93.41l88.5 19.66h93.41l93.42 14.75zm0 73.75h-19.66zm703.07 49.16-703.07-49.16v-73.75l703.07 44.25 34.41 44.25zm34.41-34.41v34.41h-34.41z" class="fil2"/><path d="m2865.28 8330.74-137.67 49.16c108.17 59 29.5 59 167.17 14.75 108.16 29.5 231.06 14.75 324.49 59 137.65 29.5 108.16 122.91 231.06 137.66 231.08 49.17 319.58-319.57-14.75-368.74l-49.16 216.33v-14.75c-14.75 14.75-14.75 0-29.5 0-63.91-29.5 0-14.75-44.24-29.5-63.91-14.75-49.17 14.75-122.91 0-122.92-14.75-186.83-63.91-324.49-63.91" class="fil1"/><path d="m2727.61 8330.74 137.66-29.5 14.74 59-137.65 49.16h-29.5zm-14.75 78.66-63.91-49.16 78.66-29.5zm181.9-49.16-14.75 63.91h29.5l-73.74 29.5h-49.17l-29.49-14.75-44.25-29.5 44.25-63.91 44.24 34.41h19.67l58.99-19.66zm-14.75 0h14.75zM3234 8409.4l-29.5 73.75-34.41-14.75h-29.5l-44.24-14.75h-49.17l-73.74-14.75-93.43-14.75 14.75-63.91 93.43 19.66h78.66l44.24 14.75h44.25l34.42 14.75zm216.33 152.41v63.92h-34.41l-14.75-19.67h-29.5l-14.75-14.75-29.49-14.75-14.75-29.5-19.68-14.75-29.5-14.75v-14.75h-14.75l-14.75-19.66h-29.5l29.5-73.75 14.75 14.75 29.5 14.75H3293l19.68 14.75 29.49 29.5 14.75 19.66 29.5 14.75 14.75 14.75v14.75h34.41zm14.75-324.49-63.91-14.75 34.41-29.5h29.5l29.5 14.75h29.5l34.41 14.75 14.75 14.75 29.5 19.67 14.75 14.75 14.75 14.75 14.75 14.75 14.75 14.75 19.67 29.5v14.75l14.75 19.66v88.5l-14.75 14.75v19.66l-19.67 14.75v29.5l-14.75 14.75-14.75 14.75-14.75 14.75h-14.75l-29.5 14.75-14.75 19.67h-108.16v-63.92h59l14.75-14.75h14.75l19.66-14.75h14.75v-14.75h14.75l14.75-14.75v-34.41h14.75v-88.5h-14.75v-19.66l-14.75-14.75v-14.75l-14.75-14.75h-14.75l-19.66-14.75-14.75-14.75h-14.75l-29.5-14.75h-44.25zm-63.91-14.75v-29.5h34.41zm-44.25 201.58 44.25-201.58 63.91 14.75-49.16 201.58-29.5 29.5zm29.5 44.25h-44.25l14.75-44.25zm29.5-29.5-73.75-29.5 44.25-14.75 29.5 14.75v14.75l-29.5 44.25v-73.75l-29.5 44.25v14.75l14.75 14.75zm-73.75 14.75 29.5-59h14.75l-44.25 14.75 73.75 29.5-59 14.75zm-29.49-29.5 14.75-63.91h14.74l14.75 19.66 14.75 14.75-29.5 59-29.49-14.75-19.68-14.75 34.43 14.75zm14.75-63.91-14.75-14.75zm-157.34 63.91 19.67-63.91h58.99l14.75-14.75h29.5l34.43 14.75-14.75 63.91h-63.93L3234 8438.9h-29.5zm-290.08-63.91-14.74-59h108.17l29.5 14.75 44.24 14.75h34.42l29.49 14.75h29.5l49.17 14.75-19.67 63.91h-29.5l-44.24-14.75h-29.5l-34.42-14.75h-44.24l-29.5-14.75h-93.42zm-14.74-59" class="fil2"/><path d="m17747.56 8606.06-122.91-44.25-875.13-93.41 49.16 122.91c167.15 14.75 825.97 49.17 904.63 157.33z" class="fil1"/><path d="m17644.31 8532.31 122.92 44.25-34.42 63.92-122.91-34.42 14.75-73.75zm-19.66 0h19.66zm-875.13-93.41 875.13 93.41v73.75l-875.13-88.5-29.5-34.41zm-29.5 44.25-14.75-44.25h44.25zm29.5 122.91-29.5-122.91 63.91-14.75 44.25 108.16-44.25 49.17zm34.41 19.67h-19.67l-14.74-19.67zm889.88 122.91 59 14.75-59 14.75-14.75-14.75-14.75-14.75h-19.66l-29.5-19.66-44.25-14.75-63.91-14.75-59-14.75h-78.67l-59-14.75-157.32-14.75h-137.67l-122.91-14.75-88.49-14.75 14.75-63.92h88.49l108.16 14.75H17133l157.32 14.75 73.75 14.75 63.92 19.67h73.75l63.91 14.75 44.25 14.75 49.16 29.5h29.5l14.75 14.75 14.75 14.75 14.75 14.75zm59 14.75-29.5 73.75-29.5-59zm49.17-137.66-49.17 137.66-59-14.75 44.25-157.33 49.17-14.75zm-14.75-49.17h29.5l-14.75 49.17z" class="fil2"/><path d="M2511.29 8837.14c-29.5 122.91 14.75 157.33-44.25 231.08l491.65-14.75c-14.75-93.42-49.16-152.42-63.91-260.58 0-93.41 14.75-201.58 14.75-309.74-88.5 172.08-88.5 339.24-137.67 540.82l-167.16-49.17c44.25 34.42-14.75-103.25-29.5-275.32 0-44.25 0-290.08-34.41-304.83z" class="fil1"/><path d="M2467.04 9038.72v59l-34.42-44.25 19.67-29.5v-14.75l14.75-14.75V8886.3l14.75-49.16 59 14.75v122.91l-14.75 34.42v29.5l-14.75 14.75-14.75 29.5zm0 59-78.67 19.66 44.25-63.91zm491.65 0h-491.65v-59l491.65-14.75 29.5 29.5zm29.5-44.25 14.75 29.5-44.25 14.75zm-122.91-260.58h78.66v59l14.75 34.41v29.5l14.75 59 14.75 78.67-63.92 14.75-14.74-59-14.75-63.92-14.75-29.5v-44.25l-14.75-34.41zm78.66-275.33-63.91-49.16 63.91 34.41v290.08h-78.66v-309.74zm-63.91-49.16 63.91-122.91v157.32zm-108.17 585.07 14.74-59-44.24 14.75 14.75-63.92 14.75-73.75v-63.91l14.74-78.66 14.75-59 19.68-63.92 14.75-29.5 14.75-29.5 14.75-44.25 14.75-34.41 63.91 49.16-19.67 29.5-14.74 14.75-14.75 29.5v34.42l-14.75 59-14.75 63.91-14.75 59-14.75 78.66v59l-14.75 78.67zm49.17-29.5-19.68 44.25-29.49-14.75zm-201.58-78.67 167.15 49.17-14.74 59-181.91-44.25zm-29.5 63.92-157.33-122.92 186.83 59zm-49.16-309.74h63.91l14.75 63.91v44.25l14.75 63.91 14.75 29.5v93.42l-14.75 14.75h-44.25l29.5-63.92h-14.75l-14.75 14.75v14.75-29.5l-14.75-29.5-19.66-29.5v-63.91l-14.75-59zm49.16-290.08-78.66-14.75 44.25-34.41 19.66 19.66 14.75 14.75v29.5l14.75 14.75v260.58h-63.91v-59l-14.75-108.17v-108.16l14.75 14.75zm-78.66-14.75v-34.41h44.25zm-29.5 442.49 29.5-442.49 78.66 14.75-49.16 427.74v14.75zm59 0v14.75z" class="fil2"/><path d="m2540.79 7947.25-29.5 122.91c122.91 63.91 398.24 93.41 570.31 137.66l73.74-14.75v-93.41l-137.66-14.75c-29.49-152.41 14.75-353.99 0-521.15 0 152.41 14.75 290.07-58.99 432.65z" class="fil1"/><path d="m2481.78 8055.41 29.5-108.16 78.67 14.75-34.43 122.91-58.99 14.75zm14.75 44.25-14.75-14.75v-29.5zm585.07 78.66 14.75 59h-14.75l-78.66-14.75-78.68-14.75-73.74-14.75-78.66-14.75-73.75-14.75-78.66-14.75h-29.5l-34.43-14.75-29.49-19.66-29.5-14.75 29.5-59 29.49 14.75h19.68l29.5 14.75 29.5 14.75 78.66 14.75 73.74 14.75 78.67 19.66h78.67l73.74 14.75 78.67 29.5zm14.75 59h-14.75zm73.74-14.75-73.74 14.75-14.75-59 73.74-14.75 49.16 29.5zm34.41-29.5v29.5h-34.41zm0-93.41v93.41h-78.66v-93.41l44.25-29.5zm-34.41-29.5h34.41v29.5zm-152.41-14.75 152.41 14.75-14.75 78.66-137.66-14.75-29.49-34.41zm0 78.66h-29.49v-34.41zm29.5-570.31-58.99-14.75h58.99l19.67 78.67-19.67 58.99v398.24l-58.99 14.75-14.75-29.5v-304.83l14.75-78.66v-122.91zm-88.49 462.15 14.75-78.66-49.18 29.5 19.68-29.5 14.75-29.5v-44.25l14.75-49.17v-44.25l14.75-49.16v-181.91l58.99 14.75v275.32l-14.75 49.17v29.5l-14.75 29.5-14.74 29.5v34.41zm44.25-14.75-14.75 14.75h-29.5zm-447.42-93.41 417.92 29.5-14.75 78.66-417.91-29.5-29.5-49.16zm-44.24 29.5 14.75-29.5h29.49z" class="fil2"/><path d="m9241.99 6457.55 122.91 44.25c103.25 294.99 181.91 968.54 319.58 1184.87 49.16-58.99 29.5-44.25 14.75-108.16l-181.92-766.97c-49.16-137.67-137.66-432.66-294.99-447.41z" class="fil22"/><path d="M14463.34 7627.68v-108.16c-186.84 29.49-398.24 0-599.82 14.75 93.41 122.9 398.23 231.06 570.32 216.31z" style="fill:#aeb0b1"/><path d="m15294.22 7608.01 398.24 19.67c-14.75-265.5-108.16-295-368.74-295z" style="fill:#4a4d4e"/><path d="m13819.27 7485.09-34.41 19.68 78.66 29.5c201.58-14.75 412.98 14.74 599.82-14.75v108.16l44.24-201.59c-290.07-78.66-442.48-93.41-688.31 59" class="fil15"/><path d="M18534.21 9913.86c93.41-14.75 368.74 14.74 442.49 63.91 49.16 103.24 63.91 196.66 19.66 304.82-122.91 44.25-339.24 29.5-447.4-44.24zm216.33 432.64 260.57-19.66c137.67-196.65 44.25-334.32-78.66-457.23-181.91 29.5-304.83-49.16-447.4 29.5-29.5 108.16-29.5 216.33 0 324.49 49.16 137.65 122.91 103.24 265.49 122.9" style="fill:#080815"/><path d="m12005.07 7873.5 108.16 260.57 14.75-280.24c-44.25-137.66-260.57-644.05-353.99-703.05-29.5 122.91-44.25 44.25 29.5 181.9 34.43 78.66 49.17 108.16 78.67 186.84 44.25 88.49 137.66 260.56 122.91 353.98" class="fil1"/><path d="m12083.73 8134.07-108.16-245.82 59-34.42 108.16 260.58v19.66zm59 0v152.42l-59-152.42zm14.75-280.24-14.75 280.24-59-19.66 14.75-260.58zm-353.99-703.05-59-14.75 44.25-19.68 29.5 19.68 34.42 29.5 14.75 44.25 29.5 29.49 44.25 108.16 63.91 108.16 44.25 122.92 49.16 108.16 44.25 93.41 14.75 73.75-59 19.67-34.41-63.92-29.5-93.41-44.25-108.16-49.16-122.92-59-103.24-44.24-93.41-34.43-49.17-14.75-29.49-29.5-29.5v-14.75zm-59-14.75 14.75-49.18 29.5 29.5zm93.43 181.9-63.93 29.5-29.5-44.24-14.75-14.75-14.75-29.5v-34.42l14.75-29.49 14.75-59 59 14.75-14.75 59v29.49l14.75 34.42zm88.49 186.84-73.75 29.5-14.74-49.18-19.68-44.25-29.5-44.24-14.75-49.17 63.93-29.5 14.74 44.25 29.5 49.16 14.75 44.25zm108.16 349.06-59 34.42v-63.92l-14.75-29.5-19.66-29.5-14.75-49.16-29.5-108.16-44.25-73.74 73.75-29.5 34.41 73.74 44.25 108.16 14.75 44.25 14.75 49.16v44.25l14.75 29.5-14.75 19.67zm-59 34.42v-34.42z" class="fil2"/><path d="M14276.5 5061.25c383.49 14.75 108.17 0 324.49 44.25 137.67 14.75 231.08 14.75 275.33 137.66l93.41-14.75c-14.75-122.91 29.5-137.66-93.41-245.82-152.41-14.75-491.65 14.75-599.82 78.66" class="fil27"/><path d="M1636.14 9761.45c122.92-29.5 137.67-14.75 216.33-78.67-49.16-122.91-14.75-290.07 29.5-412.99v-14.75h-93.41c-181.92 260.58-122.92 181.92-152.42 506.41" class="fil24"/><path d="M12496.72 7976.75c-63.91 93.41-78.66 339.24-93.41 476.9l29.5 63.91 93.41-63.91-44.25-29.5c152.42-44.25 73.75-78.66 108.17-231.08 14.75-167.16 44.25-152.41-49.17-304.82l-44.25 181.91z" class="fil42"/><path d="M18750.53 10346.5c-142.57-19.66-216.32 14.75-265.49-122.9-29.5-108.16-29.5-216.33 0-324.49 142.58-78.66 265.49 0 447.41-29.5l63.91-14.75c-142.58-34.41-388.4-63.91-511.32-19.67-73.75 122.91-73.75 388.41 0 511.31 157.33 59 368.74 59 526.07 44.25-122.91 14.75-201.58 44.25-260.58-44.25" class="fil1"/><path d="m18455.55 10238.35 78.66-34.42v34.42l14.75 14.75v14.74h14.75v14.75h14.75l14.75 14.75h108.16l49.17 14.75-19.67 63.91h-122.91l-29.5-14.75h-29.5l-14.75-14.75-14.75-19.66-14.75-14.75-19.66-14.75-14.75-14.75v-29.49zm14.75-353.99 49.16 44.24 14.75-14.74-14.75 29.49v49.17l-14.75 29.49v78.68l14.75 29.5v44.24l14.75 29.5-78.66 34.42-14.75-49.17V9928.6l14.75-29.49zm-14.75 14.75v-14.75h14.75zm462.15-63.92 29.5 63.92h-14.75l-29.5 14.75h-93.41l-59-14.75h-157.33l-14.75 14.75h-29.5l-14.75 14.74h-14.75l-49.16-44.24 34.41-29.5h29.5l29.5-19.67h14.75l29.5-14.74h93.41l49.17 14.74h181.91zm29.5 63.92h-14.75zm63.91-14.75-63.91 14.75-29.5-63.92 78.66-29.49h14.75zm0-78.66 152.42 29.49-152.42 49.17zm-491.65 49.16-63.91-34.41 14.75-14.75 34.41-14.75h29.5l29.5-14.75h167.16l78.67 14.75h78.66l59 14.75h63.91l-14.75 78.66-63.91-14.75h-59l-63.91-14.75h-260.58l-29.5 14.75h-14.75zm-63.91-34.41v-14.75h14.75zm49.16 491.64-34.41 63.91-14.75-14.75-14.75-34.41-14.75-29.5v-29.5l-14.75-29.49-14.75-34.42v-226.16l14.75-34.42v-29.49l14.75-29.5 14.75-29.5 14.75-34.41 63.91 34.41-14.75 29.5-19.66 14.75v29.49l-14.75 29.5v231.08l14.75 34.42v29.5l19.66 29.49v14.75l14.75 29.5zm-34.41 63.91-14.75-14.75zm555.56 44.25-14.75-73.75zh-63.91l-73.75 14.75h-137.66l-78.67-14.75h-63.91l-44.25-14.75h-29.5l-29.5-14.75-34.41-14.75 34.41-63.91h29.5l29.5 14.75h29.5l14.75 19.66 78.66 14.75h260.58l63.91-14.75zm-294.99-44.25 19.67-63.91h29.5v14.75l14.75 19.66h14.75v14.75h152.41l49.16-14.75 14.75 73.75h-49.16l-44.25 14.75h-108.16l-29.5-14.75h-14.75l-14.75-14.75h-14.75l-19.67-14.75-14.75-29.5zm19.67-63.91h29.5z" class="fil2"/><path d="m2511.29 8837.14 29.5-442.49v-122.91 14.75l-122.92-14.75c-14.75 152.41-14.75 442.49 93.42 565.4" class="fil1"/><path d="m2589.95 8409.4-49.16 427.74h-59l29.5-442.49h78.66zm0-14.75v14.75zm-14.75-122.91 14.75 122.91-78.66 14.75-14.75-137.66 78.66-14.75zm-78.66 0-14.75-324.49 93.41 309.74zm14.75 14.75h-14.75l78.66-29.5v14.75l-49.16 44.25zm63.91-14.75 14.75 44.25h-63.91zm-157.33-49.17 122.92 14.75-14.75 78.67-122.92-14.75-29.5-44.25zm-44.25 34.42 14.75-34.42h29.5zm108.17 580.15h59l-59 34.41-14.75-34.41-14.75-29.5-19.67-29.5-14.75-49.16-14.75-29.5-14.75-44.25v-78.67l-14.75-93.41v-226.16l78.67 14.75v290.07l14.75 44.25v34.42l14.75 44.25v29.5l14.75 34.41 14.75 29.5 14.75 14.75 14.75 29.5zm59 0v93.41l-59-59z" class="fil2"/><path d="M9576.31 7794.83c-44.25 108.17-14.75 14.75-29.5 137.67 122.92-78.67 44.25-108.17 245.83-137.67 29.5 59 29.5 167.17 137.66 304.83 14.75-152.41 14.75-167.16-29.5-304.83-44.25-63.91-63.91-44.25-152.41-63.91z" class="fil1"/><path d="m9532.06 7917.75 44.25 44.25-59-29.5v-78.67l14.75-29.5 14.75-44.25 63.92 29.5-19.67 44.25v93.42zm44.25 44.25-59 49.16v-78.66zm245.83-181.92-59 29.5 29.5 29.5h-59l-34.41 14.75h-14.75l-14.75 19.67-14.75 14.75-14.75 29.5-29.5 14.75-34.42 29.5-44.25-44.25 29.5-29.5 14.75-34.42 14.75-14.75 19.67-14.75 14.75-14.75h14.75l14.75-14.75h14.75l44.25-14.75 63.91-14.75zm-44.25-14.75h29.5l14.75 14.75zm122.91 319.58 59 14.75-59 14.75-14.75-14.75-14.75-29.5-14.75-29.5-19.66-14.75-29.5-49.16-14.75-44.25-14.75-59-14.75-63.92 59-29.5 14.75 59 34.41 78.67 14.75 29.5 14.75 49.16 14.75 14.75v14.75l14.75 29.5 29.5 14.75zm59 14.75v78.66l-59-63.91zm-88.5-275.33 59-44.25 29.5 44.25v49.17l19.67 29.5v152.41l-19.67 44.25-59-14.75v-196.66l-14.75-34.42-14.75-44.25zm-108.16-59-29.5-63.91h73.75l49.16 14.75h14.75l14.75 14.75 29.5 19.66 14.75 29.5-59 44.25-14.75-14.75v-14.75h-19.66v-14.75h-44.25l-59-14.75zm-29.5-63.91h14.75zm-172.08 63.91 172.08-63.91 29.5 63.91-172.08 59-44.25-44.25zm-14.75 14.75 14.75-14.75z" class="fil2"/><path d="M2098.3 8178.32h-63.92c-73.75 29.5-14.75 412.99 78.67 476.91 59-63.92 44.25 0 44.25-108.17z" class="fil1"/><path d="m2049.13 8134.07 49.17 14.75-14.75 73.75-49.17-14.75v-73.75zm-14.75 0h14.75zm49.17 491.66 59 44.25-44.25 14.75-14.75-14.75h-19.67v-14.75l-14.75-14.75-14.75-34.42-14.75-29.5-14.75-44.25-14.75-49.16v-29.5l-14.75-44.25v-49.16l-14.75-44.25v-59l14.75-49.17v-29.5l14.75-14.75h14.75v-14.75l29.5-14.75 14.75 73.75-14.75 14.75v137.67l14.75 34.41v44.25l14.75 29.5v49.16l19.67 29.5 14.75 29.5 14.75 14.75v14.75h14.75v19.67zm59 44.25-14.75 29.5-29.5-14.75zm-29.5-108.17 73.75-14.75v93.42l-14.75 14.75-29.5 14.75-59-44.25 44.25-34.42v14.75h-14.75v-59zm14.75-383.49 59 368.74-73.75 14.75-49.17-368.74 34.42-44.25zm-29.5-29.5 29.5 14.75v14.75z" class="fil2"/><path d="m10328.54 9023.97 34.42 108.16 304.83-14.75v-78.66l-73.76-93.42z" class="fil1"/><path d="m10313.79 9146.88-14.75-108.16 78.67-14.75 14.75 108.16-29.5 44.25zm49.17 29.5h-34.42l-14.75-29.5zm304.82-29.5-304.82 29.5v-78.66l304.82-14.75 29.5 34.41zm29.5-29.5v29.5h-29.5zm0-78.66v78.66h-73.75v-93.41l73.75-14.75zm0-29.5v29.5zm-73.75-93.42 73.75 93.42-59 44.25-78.66-93.42 14.75-59zm-49.16-14.75h34.41l14.75 14.75zm-260.58 93.42 260.58-93.42 34.41 73.75-260.57 78.67-49.17-14.75zm-14.75 44.25-14.75-44.25h29.5z" class="fil2"/><path d="m10854.61 10022.01 59-14.74c167.15-63.92 44.25-14.75 93.41-108.16-137.66-108.16-260.57-108.16-275.32 122.9z" class="fil1"/><path d="M10913.61 10051.51h-44.25l-14.75-73.74h59l14.75 58.99zm14.75-14.75-14.75 14.75zm63.92-108.16 44.25-58.99v122.91l-14.75 14.75h-14.75l-29.5 14.74-49.17 14.75-29.5-58.99 44.25-19.67 34.42-14.75v34.42l-19.67-19.67v-29.5l19.67-29.49v-14.75zm44.25-58.99 14.75 14.75-14.75 29.5zm-304.83 122.91 14.75 58.99-49.16-29.5v-44.24l14.75-49.17v-29.49l19.66-29.5 14.75-14.75 14.75-34.41 29.5-14.75h14.75l29.5-14.75h34.41l29.5 14.75h14.75l29.5 14.75 34.42 14.74 29.5 19.67 29.5 14.75-44.25 58.99-34.42-14.74-14.75-14.75-29.5-14.75h-14.75l-29.5-14.75h-49.16l-14.75 14.75-14.75 14.75v29.49l-14.75 14.75v78.66zm14.75 58.99h-49.16v-29.5zm108.16 0h-108.16l-14.75-58.99 122.91-14.75 14.75 73.74zm14.75 0h-14.75z" class="fil2"/><path d="M1744.3 8394.65c93.42-49.16-14.75-137.66-78.66-172.08l152.41-88.5c-73.75-34.41-14.75-34.41-88.5-49.16-63.91-14.75-14.75 49.16-122.91-59-93.41 152.41 59 245.83 137.66 368.74" class="fil1"/><path d="m1650.89 8178.32 49.17 78.67v-63.92l14.75 14.75 29.5 14.75 29.5 34.42 14.75 29.5 14.75 14.75v14.75l14.75 14.75v49.16l-14.75 14.75-14.75 14.75-14.75 14.75-44.25-63.91h14.75v-29.5l-14.75-14.75-14.75-14.75-14.75-14.75-19.67-29.5h-29.5zm0 78.67-44.25-49.17 44.25-29.5zm186.83-78.67-137.66 78.67-49.17-78.67 152.42-78.66h34.41zm0-78.66 59 34.41-59 44.25zm-122.91 14.75 14.75-59h44.25l14.75 14.75 14.75 14.75h14.75v14.75h19.66l-34.41 78.66-29.5-14.75-14.75-14.75v-14.75h-14.75 14.75-14.75zm-78.67-59-59-44.25h59l29.5 29.5 14.75 14.75h19.67-34.42 14.75l34.42-14.75 14.75 14.75-14.75 59-34.42 19.66-14.75-19.66-29.5-14.75-14.75-14.75-29.5-29.5zm-59-44.25 29.5-34.41 29.5 34.41zm152.42 349.08 44.25 63.91-59-14.75-63.92-78.66-59-93.42-14.75-29.5-19.66-14.75-14.75-29.5v-93.41l14.75-29.5 19.66-29.5 59 44.25-14.75 14.75v93.41l14.75 14.75v14.75l78.67 93.42 59 93.41zm44.25 63.91-29.5 14.75-29.5-29.5z" class="fil2"/><path d="M14124.1 6718.12c29.49 78.67 29.49-29.5 78.66-93.41l334.32-14.75 34.41 108.16c152.41 14.75 88.5-14.75 137.66 78.67l29.5-186.83-462.15-29.5h-122.91z" class="fil30"/><path d="M3204.52 8728.98c29.5 108.16 0 157.32 58.99 245.82 29.5-152.41 63.92-368.74-29.49-491.65-122.93 122.91-63.93 93.41-29.5 245.83" class="fil1"/><path d="m3219.25 8974.8 73.75 19.67h-59l-29.5-34.42v-44.25l-14.74-29.5v-108.16l-19.67-49.16 78.66-14.75v49.16l14.75 29.5v108.16l14.75 29.5 14.75 29.5zm73.75 19.67-29.5 88.5-29.5-88.5zm-29.5-476.91-44.25-63.91 44.25 14.75 14.75 14.75 14.75 34.41 19.68 29.5v44.25l14.75 34.42v226.16l-14.75 78.66-19.68 63.92-73.75-19.67 14.75-59 14.75-63.91v-59l14.75-78.66-14.75-29.5v-78.67l-14.75-29.5v-29.5l-14.75-14.75-14.75-29.5zm-44.25-63.91 29.5-29.5 14.75 44.25zm29.5 260.58-78.66 14.75-14.75-73.75-29.5-49.17v-44.25l14.75-14.75v-14.75l29.5-29.5 49.16-49.16 44.25 63.91-29.5 29.5-29.5 29.5v14.75l14.75 49.17z" class="fil2"/><path d="M6134.75 2096.59c49.16 73.75 108.16 88.5 186.83 152.41l44.25 14.75 14.75-137.66L6120 2003.18c34.41 93.41-59 14.75 49.16 93.41z" style="fill:#8f8a75"/><path d="M2019.63 8055.41c93.42-14.75 137.67-78.66 167.17-137.66-137.67-29.5-88.5-29.5-211.42 14.75z" class="fil1"/><path d="m2172.05 7947.25 14.75-59 34.41 44.25-14.75 29.5-19.66 14.75-14.75 34.41-29.5 14.75-14.75 29.5-29.5 14.75-34.42 14.75h-29.5l-14.75-59 14.75-14.75h29.5l19.67-14.75 14.75-19.66 14.75-14.75 14.75-14.75 14.75-29.5 14.75-14.75zm14.75-59h49.16l-14.75 44.25zm-181.92 29.5-63.91 29.5 19.66-44.25 44.25-14.75 29.5-14.75 14.75-19.67h34.42l44.25 19.67 59 14.75-14.75 59-59-14.75h-63.92l-14.75 14.75-44.25 14.75zm-63.91 29.5-14.75-29.5 34.41-14.75zm49.16 122.91-49.16-122.91 63.91-29.5 44.25 122.91-14.75 44.25zm44.25 14.75-29.5 14.75-14.75-29.5z" class="fil2"/><path d="m16459.44 8379.9 14.75-93.41c-29.5-122.92 14.75-49.17-59-78.67-93.41 49.17-63.91 49.17-63.91 201.58z" class="fil14"/><path d="m10240.04 5995.39 44.25-14.75c-152.41-44.25-152.41-73.75-122.91-231.07l-29.5-14.75c-78.66 49.16-49.16 245.82 108.16 260.57" style="fill:#0e112f"/><path d="m3573.26 9023.97 73.74 59 14.75-181.92c-103.24 44.25 19.66 29.5-122.92 14.75v14.75z" class="fil1"/><path d="m3632.24 9117.38-73.75-63.91 29.5-44.25 93.42 44.25 14.75 29.5zm63.92-34.41-14.75 78.66-49.17-44.25zm0-167.17v167.17h-78.67l14.75-181.92 14.75-29.5zm-49.17-44.25 63.92-19.66-14.75 63.91zm-73.75 29.5-78.66 14.75 44.25-44.25 49.16 14.75h29.5l14.75 14.75h-29.5l44.25-29.5 34.42 73.75-49.17 14.75h-59l-49.16-14.75zm-78.66 14.75-14.75-44.25h59zm78.66 14.75-63.91 14.75v-14.75l-14.75-14.75 78.66-14.75zm-34.41 108.17-29.5-93.42 63.91-14.75 29.5 93.42-44.25 29.5zm19.66 14.75h-19.66v-14.75z" class="fil2"/><path d="m13755.36 7824.33 63.91-14.75-34.41-231.07c-73.75 93.41-73.75 122.91-29.5 245.82" class="fil15"/><path d="M3081.6 9053.47h73.74c34.43-108.17 49.18-93.42-29.5-181.92z" class="fil1"/><path d="m3155.34 9082.97-73.74 14.75v-73.75h73.74l34.43 44.25zm34.43-14.75v14.75h-34.43zm-19.68-181.92-73.74-14.75 58.99-19.66 34.43 34.41 14.75 14.75v29.5l14.75 14.75v29.5l-14.75 34.42v14.75l-14.75 44.25-63.93-29.5v-29.5l14.75-34.42v-29.5l-14.75-14.75-29.49-29.5zm-73.74-14.75 14.74-78.66 44.25 59zm-49.17 181.92 49.17-181.92 73.74 14.75-59 181.92-29.49 29.5zm34.42 44.25h-49.17l14.75-44.25z" class="fil2"/><path d="M9546.81 7962v-29.5c14.75-122.92-14.75-29.5 29.5-137.67-88.5 44.25-59 93.42-29.5 167.17" style="fill:#7a6314"/><path d="M7506.46 12185.29v34.41c88.5-34.41 14.75 29.5 88.5-78.66h-59z" class="fil30"/></g></svg>